<?xml version="1.0" encoding="UTF-8"?><svg id="Layer_2" xmlns="http://www.w3.org/2000/svg" viewBox="0 0 100 100"><defs><style>.cls-1{fill:none;}.cls-2{fill:#a91b26;}</style></defs><g id="Layer_1-2"><g><g><path class="cls-2" d="M73.07,79.59v-2.09h2.14v2.09h-2.14Z"/><path class="cls-2" d="M79.6,79.63h-2.1v-2.14h2.1v2.14Z"/><path class="cls-2" d="M26.93,20.37c3.62,0,6.59,2.95,6.6,6.57,0,3.62-2.95,6.59-6.57,6.6-3.62,0-6.59-2.95-6.6-6.57,0-3.62,2.95-6.59,6.57-6.6h0Zm-.01,10.98c2.42,.01,4.41-1.96,4.42-4.38,0-2.4-1.94-4.37-4.33-4.4-2.43-.03-4.43,1.93-4.45,4.34-.02,2.43,1.94,4.42,4.36,4.43Z"/><path class="cls-2" d="M72.1,26.4c.46-.44,.96-.91,1.49-1.4,.42,.48,.88,1.02,1.34,1.55-.39,.4-.87,.9-1.36,1.41-.5-.53-.98-1.03-1.47-1.55h0Z"/><path class="cls-2" d="M76.64,21.85c.52,.51,1.01,1,1.51,1.49-.51,.49-1,.95-1.52,1.45-.42-.47-.9-1.01-1.36-1.52,.4-.41,.88-.92,1.36-1.42h0Z"/><path class="cls-2" d="M71.9,29.53c-.46,.47-.92,.94-1.4,1.42-.47-.48-.96-.97-1.48-1.49,.49-.45,.97-.9,1.45-1.34l1.43,1.41Z"/><path class="cls-2" d="M29.17,70.83v-2.11h2.12v2.11h-2.12Z"/><path class="cls-2" d="M33.57,68.7h2.11v2.11h-2.11v-2.11Z"/><path class="cls-2" d="M40.06,70.83h-2.11v-2.11h2.11v2.11Z"/><g><path class="cls-2" d="M15.95,68.68h6.59c0-.75,.02-1.45-.01-2.15,0-.13-.16-.3-.3-.38-1.54-.94-2.17-2.26-1.77-3.77,.4-1.55,1.64-2.43,3.43-2.48,.13,0,.26-.02,.37-.03-.4-1.5-.85-2.95-1.17-4.44-.89-4.23-.71-8.45,.43-12.62,.12-.44,.08-.76-.18-1.14-1.85-2.75-3.71-5.49-5.51-8.27-3.94-6.07-1.5-14.04,5.09-16.65,6.25-2.48,13.33,1.32,14.72,7.89,.05,.24,.11,.48,.17,.72,9.56-4.27,18.75-3.67,27.64,1.95,.57-.76,1.17-1.54,1.74-2.29-2.24-2.23-4.47-4.45-6.76-6.75,.83-.83,1.55-1.58,2.32-2.29,.12-.11,.47-.03,.68,.04,2.88,.95,5.77,1.9,8.64,2.88,.46,.16,.76,.13,1.13-.22,2.34-2.18,5.83-2.12,8.04,.1,2.19,2.2,2.26,5.66,.1,7.98-.38,.41-.39,.72-.23,1.2,.97,2.85,1.91,5.72,2.88,8.57,.15,.45,.11,.74-.25,1.07-.64,.59-1.22,1.23-1.88,1.91-2.26-2.3-4.47-4.56-6.69-6.82-.92,.69-1.7,1.28-2.48,1.87,5.58,8.8,6.23,17.95,2.02,27.51,.2,.01,.39,.03,.58,.03,1.78,0,3.57,0,5.35,0,1.96,.01,3.36,1.42,3.37,3.39,0,5.05,0,10.11,0,15.16,0,1.96-1.41,3.39-3.36,3.4-5.81,.01-11.62,.01-17.43,0-1.92,0-3.33-1.42-3.36-3.34-.02-1.66,0-3.32,0-4.96-1.57,.41-3.08,.88-4.61,1.17-1.43,.27-2.9,.38-4.35,.51-.41,.04-.64,.13-.85,.5-2.3,3.96-5.75,6.04-10.34,6.11-4.02,.06-8.05,.03-12.07,0-6.5-.04-11.65-5.21-11.69-11.7,0-1.19,0-2.38,0-3.66h0Zm50.51-4.33c-.14-.03-.19-.05-.23-.05-.87,0-1.74,0-2.61,0-1.23,0-1.56,.33-1.56,1.53v14.54c0,1.16,.35,1.5,1.52,1.5h16.74c1.16,0,1.51-.34,1.51-1.51v-10.08c0-1.58,0-3.15,0-4.73,0-.63-.27-1.15-.89-1.19-1.15-.08-2.31-.02-3.51-.02v4.33h-10.96v-4.29h0Zm-48.31,6.53c0,.65,0,1.2,0,1.75,.1,4.97,4.26,9.16,9.24,9.21,4.21,.05,8.42,.11,12.62-.02,4.03-.12,6.87-2.18,8.56-5.83,.1-.21,.14-.44,.23-.72h-.86c-6.63,0-13.26,0-19.89,.01-.54,0-.81-.16-1.03-.65-.51-1.12-1.08-2.22-1.65-3.31-.1-.19-.34-.43-.51-.43-2.21-.03-4.42-.02-6.71-.02h0Zm40.61-21.97c-.09-3.72-.38-7.34-1.11-10.91h-15.32c-.72,3.63-1.04,7.25-1.1,10.91h17.53Zm.16,2.28h-17.82c.27,2.87,.53,5.66,.83,8.46,.02,.18,.28,.35,.45,.5,.56,.49,1.2,.91,1.65,1.47,.27,.34,.47,.5,.91,.5,4.03-.02,8.05,0,12.08,0,.2,0,.41-.02,.81-.04,.37-3.61,.73-7.21,1.1-10.88h0Zm-23.2-24.81c.02-5-5.23-9.27-10.75-7.96-5.95,1.41-8.77,8.25-5.48,13.47,2.09,3.32,4.33,6.55,6.51,9.82,.55,.83,1.31,.83,1.86,0,2.16-3.22,4.32-6.45,6.45-9.69,.97-1.47,1.41-3.11,1.41-5.65h0Zm39.47,24.8h-14.08c-.35,3.66-.7,7.27-1.06,10.91-.06-.02,0,.02,.07,.02,3.89,0,7.77,.01,11.66,0,.2,0,.49-.22,.58-.42,.51-1.09,1.04-2.19,1.45-3.32,.84-2.3,1.29-4.69,1.39-7.18h0Zm-50.42-.02c.13,2.87,.72,5.57,1.74,8.19,.17,.43,.37,.58,.84,.58,3.91-.02,7.81-.01,11.72-.01,.2,0,.4-.02,.55-.03-.23-2.93-.46-5.81-.69-8.72h-14.17Zm14.09-2.26c.35-3.66,.7-7.27,1.06-10.91,.06,.02,0-.02-.06-.02-2.17,0-4.34-.02-6.51,0-.21,0-.48,.22-.61,.41-1.06,1.55-2.09,3.11-3.13,4.67-.58,.87-1.39,1.41-2.43,1.46-.57,.03-1.15-.13-1.85-.23-.2,1.49-.41,3.02-.62,4.6h14.15Zm29.49-3.6c-1.02-2.03-1.99-3.95-2.93-5.88-.21-.42-.37-.63-.91-.46-.81,.26-1.66,.12-2.26-.46-.72-.7-1.51-.55-2.21-.51,.35,3.66,.7,7.28,1.04,10.9h14.1c-.25-4.78-1.66-9.11-4.42-12.98-.06,.2-.03,.38,.01,.55,.38,1.53,.78,3.05,1.14,4.59,.05,.23,.06,.59-.08,.74-1.12,1.17-2.27,2.3-3.49,3.51h0Zm12.38-22.51c-.07-1.4-.73-2.55-2.11-3.16-1.4-.63-2.75-.41-3.87,.64-1.21,1.14-2.38,2.33-3.54,3.53-3.31,3.43-5.92,7.35-7.84,11.72-.17,.39-.39,.84,.05,1.1,.27,.16,.75,.16,1.05,.03,1.13-.49,2.23-1.04,3.32-1.62,4.67-2.47,8.45-6.04,12.05-9.83,.6-.64,.87-1.43,.9-2.41h0Zm-23.58,12.95c-.16-.59-.32-1.13-.45-1.68-.24-1.06-.6-2.01-1.81-2.31-.03,0-.04-.07-.08-.14,.15-.15,.34-.3,.44-.49,.1-.19,.2-.49,.12-.64-.78-1.36-1.46-2.82-2.45-4.01-1.89-2.29-3.95-2.26-5.88,0-2.3,2.66-3.3,5.93-4.21,9.29h14.32Zm-6.09,39.18l.23,.1c3.64-2.6,4.62-6.69,5.9-10.72-4.27,0-8.43,0-12.59,0-.13,0-.3,.09-.38,.19-.45,.56-.88,1.13-1.36,1.75,1.05,2.1,2.13,4.29,3.25,6.45,.1,.19,.45,.35,.69,.36,1.41,.03,2.82,.02,4.26,.02v1.84h0Zm-26.31-6.23c.37,0,.69,.04,.99,0,.6-.09,.89,.16,1.13,.7,.47,1.06,1.06,2.07,1.54,3.13,.2,.44,.45,.58,.93,.58,4.59-.02,9.19-.01,13.78-.01,.2,0,.39-.02,.65-.03-.11-.24-.18-.43-.27-.6-.9-1.8-1.82-3.58-2.68-5.39-.21-.45-.47-.57-.94-.57-4.82,.02-9.64,0-14.46,0h-.67v2.19h0Zm9.73-32.93c1.93,0,3.71-.02,5.49,.01,.5,0,.64-.18,.77-.62,.47-1.57,.88-3.17,1.52-4.68,.75-1.77,1.73-3.45,2.59-5.14,.06,0-.03-.01-.11,0-2.29,.49-4.48,1.27-6.53,2.39-.2,.11-.36,.45-.39,.71-.2,1.88-.85,3.59-1.9,5.15-.46,.68-.91,1.36-1.44,2.17h0Zm-2.06,26.35h-8.72c-.54,0-1,.24-1.07,.76-.05,.37,.1,.86,.34,1.14,.19,.22,.66,.27,1.01,.27,4.94,.02,9.88,.01,14.82,.01,.78,0,1.55,.02,2.33,0,.74-.02,1.24-.57,1.16-1.23-.08-.6-.54-.96-1.29-.96-2.86,0-5.72,0-8.58,0Zm27.45,2.25c-.45-.03-.45-.03-.6,.53-.91,3.46-2.09,6.81-4.28,9.71-.02,.02,.01,.08,.06,.28,1.52-.5,3.04-.99,4.54-1.52,.15-.05,.27-.38,.28-.59,.03-1.14,.01-2.29,.01-3.43v-4.98h0Zm8.83-.03v2.11h6.49v-2.11h-6.49Zm-11.43-35.25c.18-.17,.37-.3,.5-.48,.4-.56,.87-.63,1.53-.44,1.4,.41,2.83,.72,4.25,1.07,.18,.04,.37,.06,.66,.11-1.62-1.59-7.08-3.89-9.15-3.95,.71,1.19,1.44,2.4,2.2,3.68h0Zm6.91-10.48c1.54,1.54,3.06,3.06,4.58,4.58,.7-.73,1.43-1.5,2.21-2.31-2.3-.77-4.53-1.51-6.79-2.26Zm12.78,12.82c1.39,1.38,2.91,2.89,4.46,4.42-.75-2.25-1.5-4.49-2.3-6.9-.8,.92-1.49,1.71-2.15,2.47Zm-18.48-.32c1.21,.6,2.42,1.21,3.66,1.83,.28-.55,.52-1.03,.79-1.57-1.07-.27-2.08-.49-3.05-.79-.61-.19-1.06-.11-1.4,.53h0Zm10.17,5.97l-1.57,.82c.63,1.25,1.23,2.45,1.93,3.85,.24-.49,.56-.82,.51-1.08-.23-1.17-.56-2.33-.88-3.58Zm-9.71-3.28c.39,2.1,.45,2.15,2.05,1.9,.06-.24,.12-.49,.19-.77-.75-.38-1.45-.73-2.24-1.12Z"/><path class="cls-2" d="M48.96,48.93h2.09v2.14h-2.09v-2.14Z"/><path class="cls-2" d="M48.94,48.94h2.11v2.11h-2.11v-2.11Z"/><path class="cls-2" d="M48.94,51.05v-2.1h2.11v2.1h-2.11Z"/><path class="cls-2" d="M51.06,51.06h-2.11v-2.11h2.11v2.11Z"/><path class="cls-2" d="M48.94,51.06v-2.11h2.12v2.11h-2.12Z"/><path class="cls-2" d="M51.06,48.95v2.11h-2.12v-2.11h2.12Z"/></g></g><rect class="cls-1" width="100" height="100"/></g></g></svg>