<?xml version="1.0" encoding="UTF-8"?><svg id="Layer_2" xmlns="http://www.w3.org/2000/svg" viewBox="0 0 426 426"><defs><style>.cls-1{fill:none;}.cls-2{fill:#a91b26;}</style></defs><g id="Layer_2-2"><g><g><path class="cls-2" d="M351.28,286.52l-39.64-33.47c1.28-2.4,2.1-5.05,2.33-7.84,.45-5.38-1.21-10.62-4.68-14.72-2.54-3.02-5.85-5.19-9.56-6.3,5.51-7.36,5.44-17.83-.72-25.15-2.68-3.18-6.2-5.4-10.16-6.46,4.41-7.22,3.96-16.76-1.79-23.59-3.18-3.77-7.57-6.2-12.44-6.92,2.23-6.51,1.1-13.99-3.64-19.62-3.46-4.11-8.35-6.63-13.74-7.08-5.42-.47-10.63,1.2-14.74,4.67l-.75,.63-22.72-10.6c-11.89-6.17-22.3-1.32-27.34,6.21-1.68,2.5-2.7,5.21-3.24,7.93l-4.95-4.18c-8.53-7.18-21.3-6.08-28.48,2.42-4.74,5.62-5.87,13.11-3.64,19.62-4.87,.72-9.24,3.15-12.44,6.92-3.47,4.11-5.13,9.35-4.67,14.73,.27,3.19,1.26,6.2,2.88,8.85-3.83,1.03-7.41,3.2-10.16,6.46-6.17,7.32-6.23,17.79-.72,25.15-3.61,1.1-6.95,3.2-9.56,6.29-5.49,6.5-6.12,15.48-2.33,22.57l-39.66,33.47c-2.06,1.73-2.32,4.81-.58,6.86,.97,1.14,2.34,1.73,3.73,1.73,1.11,0,2.22-.37,3.14-1.14l39.8-33.58,15.96,13.46c3.67,3.09,8.22,4.75,12.98,4.75,.58,0,1.16-.03,1.75-.08,5.38-.46,10.26-2.97,13.71-7.08,3.48-4.1,5.14-9.33,4.69-14.72-.24-2.85-1.09-5.54-2.41-7.97,4.02-.97,7.8-3.14,10.66-6.53,3.94-4.68,5.3-10.63,4.39-16.24h.02c5.68,0,11.27-2.36,15.1-6.88,3.58-3.6,5.43-8.5,5.2-13.78,0-.18-.07-.34-.08-.51,.8,.1,1.59,.23,2.4,.23,.58,0,1.17-.02,1.75-.08,5.39-.46,10.26-2.98,13.44-6.77,3.6-3.58,5.46-8.46,5.24-13.76-.2-4.81-2.15-9.33-5.31-12.89l28.47-24.04c2.13-1.79,4.83-2.67,7.64-2.41,2.8,.23,5.33,1.53,7.11,3.66,3.72,4.41,3.15,11.03-1.26,14.75l-3.68,3.12h0c-2.05,1.74-2.31,4.81-.57,6.86,1.73,2.05,4.8,2.3,6.86,.57l.02-.02c2.11-1.77,4.83-2.6,7.58-2.39,2.8,.23,5.34,1.53,7.13,3.65,3.72,4.42,3.16,11.03-1.26,14.75l-7.81,6.61h0c-2.05,1.74-2.31,4.81-.57,6.86,1.73,2.05,4.81,2.31,6.86,.57h0c2.12-1.8,4.9-2.63,7.62-2.42,2.8,.24,5.32,1.53,7.1,3.66,3.72,4.41,3.15,11.03-1.25,14.75l-9.48,8h0c-2.05,1.74-2.32,4.81-.58,6.86s4.8,2.32,6.86,.58h.02c2.12-1.8,4.8-2.63,7.61-2.42,2.8,.24,5.32,1.53,7.11,3.67,1.8,2.13,2.65,4.83,2.42,7.63-.24,2.8-1.53,5.33-3.66,7.12l-44.25,37.37c-18.06,15.25-32.95,13.63-55.33,9.18-1.46-.31-2.96,.1-4.1,1.06l-66.63,56.25c-2.05,1.73-2.31,4.8-.57,6.86,.96,1.14,2.33,1.73,3.72,1.73,1.11,0,2.22-.37,3.14-1.15l64.85-54.74c9.24,1.78,17.7,3.02,25.87,2.72l62.19,52.04c.92,.77,2.03,1.13,3.13,1.13,1.39,0,2.78-.59,3.74-1.74,1.72-2.07,1.46-5.13-.61-6.86l-55.59-46.52c7.38-2.09,14.74-5.98,22.48-12.51l42.6-35.95,39.78,33.59c.92,.77,2.03,1.15,3.14,1.15,1.39,0,2.76-.58,3.73-1.72,1.73-2.05,1.47-5.13-.59-6.86h0ZM200.3,154.21c-3.69-3.11-3.02-8.77-.51-12.51,1.24-1.85,5.96-7.53,14.94-2.89l18.82,8.78-20.55,17.36-12.66-10.68-.03-.03s0-.01,0-.02h0Zm-42.53,110.93c-1.79,2.13-4.31,3.42-7.1,3.66-2.82,.25-5.51-.62-7.63-2.41l-17.64-14.87c-4.41-3.74-4.97-10.36-1.24-14.76,3.69-4.38,10.23-4.96,14.65-1.31l17.73,14.95c2.12,1.79,3.42,4.31,3.65,7.11s-.63,5.5-2.42,7.63h0Zm12.94-29.22c-3.72,4.41-10.33,4.97-14.74,1.26l-10.76-9.07s-.02-.03-.03-.04h0l-9.47-7.99c-4.41-3.73-4.97-10.35-1.26-14.75,1.8-2.13,4.33-3.42,7.12-3.66,2.8-.23,5.51,.62,7.63,2.42h0s.03,.01,.04,.02l20.21,17.08c4.41,3.72,4.97,10.34,1.26,14.74h0Zm19.79-23.43c-3.73,4.41-10.34,4.97-14.76,1.25l-20.32-17.16s-.02,0-.02,0l-7.76-6.55c-2.12-1.79-3.42-4.31-3.66-7.11-.24-2.8,.62-5.51,2.41-7.63,1.79-2.12,4.32-3.42,7.11-3.65,2.75-.26,5.48,.61,7.59,2.38l.04,.04,28.09,23.7c2.32,1.96,3.77,4.94,3.9,7.97,.1,2.54-.74,4.85-2.65,6.78h0Zm22.73-20.92c-1.79,2.12-4.31,3.42-7.1,3.66-2.81,.26-5.5-.62-7.61-2.4-.24-.2-.45-.2-.65-.09-.73-.85-1.48-1.7-2.34-2.43l-28.1-23.71s-.04-.03-.06-.05l-3.64-3.06c-4.41-3.73-4.97-10.35-1.26-14.75,3.73-4.4,10.35-4.97,14.75-1.26l6.66,5.62s0,0,0,0l10.58,8.93,3.27,2.76h0l14.26,12.04c2.32,1.95,3.77,4.93,3.9,7.97,.1,2.53-.74,4.82-2.67,6.76h0Z"/><path class="cls-2" d="M232.51,97.4c2.69,0,4.87-2.18,4.87-4.87v-25.61c0-2.69-2.18-4.87-4.87-4.87s-4.87,2.18-4.87,4.87v25.61c0,2.69,2.18,4.87,4.87,4.87Z"/><path class="cls-2" d="M297.02,111.4c1.5,0,2.98-.69,3.93-1.99l15.15-20.65c1.59-2.17,1.12-5.21-1.05-6.81-2.18-1.6-5.22-1.12-6.81,1.05l-15.15,20.65c-1.59,2.17-1.12,5.21,1.05,6.81,.87,.63,1.88,.94,2.87,.94h0Z"/><path class="cls-2" d="M164.07,109.42c.95,1.3,2.43,1.99,3.93,1.99,1,0,2.01-.31,2.88-.95,2.17-1.59,2.63-4.63,1.04-6.8l-15.16-20.65c-1.59-2.16-4.63-2.63-6.8-1.04-2.17,1.59-2.63,4.63-1.04,6.8l15.15,20.65Z"/></g><rect class="cls-1" width="426" height="426"/></g></g></svg>