<?xml version="1.0" encoding="UTF-8"?><svg id="Layer_2" xmlns="http://www.w3.org/2000/svg" viewBox="0 0 100 100"><defs><style>.cls-1{fill:none;}.cls-2{fill:#a91b26;}</style></defs><g id="Layer_1-2"><g><g><path class="cls-2" d="M72.17,67.64c.41,.53,.81,1.04,1.24,1.59,.34-.26,.63-.49,.94-.71,.83-.59,1.79-.52,2.42,.27,2.16,2.72,4.3,5.46,6.42,8.21,.63,.81,.51,1.76-.28,2.41-1.19,.97-2.4,1.92-3.62,2.83-.82,.61-1.77,.48-2.41-.32-2.13-2.69-4.24-5.39-6.34-8.1-.68-.88-.54-1.85,.32-2.57,.26-.22,.53-.42,.85-.68-.39-.51-.77-.99-1.17-1.5-1.76,1.29-3.63,2.19-5.73,2.6-.47,.09-.37,.43-.38,.73-.06,1.79-1.02,3.05-2.62,3.4-.3,.07-.63,.07-.94,.07-11.78,0-23.55,0-35.33,0-2.19,0-3.54-1.36-3.55-3.55,0-.58,0-1.17,0-1.83-.71,0-1.36,0-2,0-2.25-.03-3.56-1.34-3.56-3.6V20.99c0-2.27,1.34-3.62,3.62-3.62,11.73,0,23.47,0,35.2,0,2.28,0,3.59,1.33,3.6,3.63,0,.56,0,1.12,0,1.77h2c2.24,0,3.58,1.32,3.58,3.58,0,5.39,.02,10.79-.02,16.18,0,.77,.19,1.06,.96,1.25,10.4,2.53,14.38,15.35,7.27,23.34-.15,.17-.29,.34-.46,.53h0Zm-9.98-24.34c.03-.17,.06-.25,.06-.34,0-5.6,0-11.19,0-16.79,0-.9-.43-1.24-1.41-1.24H25.57c-1.04,0-1.43,.38-1.43,1.43v45.9c0,1.05,.39,1.43,1.43,1.43,2.3,0,4.6,0,6.91,0h28.37c1.13,0,1.61-.63,1.29-1.68-.04-.01-.08-.03-.13-.04-.09,0-.18,0-.27,0-3.81-.03-7.08-1.39-9.82-4.02-.36-.34-.71-.46-1.19-.46-7.15,.01-14.31,0-21.46,0-.25,0-.5,0-.74-.02-.58-.07-.9-.43-.94-.98-.04-.56,.24-.96,.8-1.1,.28-.07,.58-.07,.87-.07,6.54,0,13.09,0,19.63,0h.71c-.62-1.49-1.2-2.9-1.8-4.35H29.18c-.23,0-.45,.01-.68-.02-.54-.08-.86-.41-.91-.94-.06-.53,.17-.94,.69-1.11,.27-.09,.57-.1,.87-.1,5.87,0,11.74,0,17.6,0h.73c.1-1.5,.2-2.9,.3-4.34H29.22c-.2,0-.41,.01-.61,0-.6-.05-1.02-.49-1.04-1.05-.01-.56,.4-1.02,.99-1.09,.22-.03,.45-.01,.68-.01,6.23,0,12.46,0,18.68,0,.24,0,.6-.06,.7-.21,.83-1.35,1.6-2.73,2.4-4.12h-.54c-1.4,0-2.8,0-4.2,0-.86,0-1.33-.41-1.31-1.11,.01-.67,.47-1.05,1.29-1.05,1.78,0,3.57-.04,5.35,.01,1.33,.04,2.6-.02,3.69-.9,.19-.15,.44-.22,.67-.33,1.96-.9,4.02-1.3,6.22-1.28h0Zm-5.52-20.54v-1.57c0-1.36-.3-1.66-1.68-1.66H20.27c-1.4,0-1.7,.3-1.7,1.71v45.35c0,.22-.01,.45,0,.68,.06,.52,.33,.94,.86,.98,.82,.06,1.65,.02,2.53,.02v-.86c0-13.63,.02-27.26-.02-40.88,0-2.21,1.45-3.82,3.82-3.8,9.99,.07,19.99,.03,29.98,.03h.91Zm5.2,22.69c-6.78,.02-12.18,5.46-12.16,12.26,.02,6.71,5.46,12.12,12.17,12.1,6.76-.02,12.19-5.45,12.18-12.17,0-6.73-5.48-12.2-12.19-12.18h0Zm19.36,32.53c-1.98-2.53-3.91-5-5.88-7.51-1,.78-1.95,1.52-2.91,2.28,1.94,2.48,3.83,4.9,5.73,7.31,.04,.05,.1,.08,.2,.16,.93-.73,1.86-1.46,2.86-2.24Z"/><path class="cls-2" d="M42.3,40.1c0,1.6,0,3.2,0,4.8-.01,1.86-1.19,3.05-3.05,3.05-2.89,0-5.77,0-8.66,0-1.78,0-3.01-1.17-3.03-2.95-.03-3.27-.03-6.54,0-9.81,.02-1.78,1.25-2.94,3.02-2.94,2.91,0,5.82,0,8.73,0,1.77,0,2.96,1.19,2.98,2.97,.02,1.62,0,3.25,0,4.87h0Zm-2.17,.02c0-1.58,0-3.16,0-4.73,0-.75-.21-.96-.97-.96-2.82,0-5.64,0-8.45,0-.75,0-.98,.22-.98,.96,0,3.13,0,6.27,0,9.4,0,.78,.24,1,1.02,1,2.79,0,5.59,0,8.39,0,.79,0,1-.21,1-1,0-1.56,0-3.11,0-4.67h0Z"/><path class="cls-2" d="M52.06,39.28c1.94,0,3.87,0,5.81,0,.8,0,1.29,.41,1.3,1.06,0,.64-.5,1.1-1.27,1.1-3.9,0-7.79,0-11.69,0-.8,0-1.26-.44-1.25-1.11,0-.67,.46-1.05,1.29-1.05,1.94,0,3.87,0,5.81,0Z"/><path class="cls-2" d="M52.03,32.76h5.96c.5,0,.95,.16,1.06,.66,.07,.35,0,.83-.19,1.1-.17,.24-.62,.39-.94,.39-3.9,.03-7.81,.02-11.71,.01-.8,0-1.25-.46-1.23-1.13,.02-.64,.47-1.02,1.25-1.03,1.94,0,3.88,0,5.82,0h0Z"/><path class="cls-2" d="M71.58,57.63c.02,5.35-4.3,9.69-9.64,9.71-5.41,.02-9.77-4.26-9.79-9.63-.02-5.43,4.28-9.77,9.71-9.78,5.38-.01,9.7,4.3,9.72,9.7h0Zm-2.17,.04c0-4.23-3.33-7.56-7.55-7.57-4.19,0-7.55,3.37-7.54,7.58,0,4.15,3.38,7.5,7.55,7.5,4.18,0,7.54-3.35,7.54-7.51h0Z"/><path class="cls-2" d="M61.91,51.81c2.76,.06,5.04,1.84,5.66,4.25,.19,.76-.03,1.3-.61,1.52-.65,.24-1.2-.1-1.46-.89-.54-1.64-1.66-2.58-3.27-2.69-.36-.02-.72,.05-1.08,.07-.67,.03-1.13-.33-1.21-.92-.08-.59,.28-1.08,.93-1.21,.4-.08,.8-.09,1.04-.12h0Z"/></g><rect class="cls-1" width="100" height="100"/></g></g></svg>