<?xml version="1.0" encoding="UTF-8"?><svg id="Layer_2" xmlns="http://www.w3.org/2000/svg" viewBox="0 0 100 100"><defs><style>.cls-1{fill:none;}.cls-2{fill:#a91b26;}</style></defs><g id="Layer_1-2"><g><g><path class="cls-2" d="M15.69,42.91c.05-.09,.11-.19,.14-.28,.59-1.77,1.95-2.76,3.83-2.77,3.37,0,6.74,0,10.11,0h.81c0-.65,.03-1.24-.02-1.83-.01-.16-.23-.35-.4-.43-.7-.34-1.43-.62-2.14-.95-2.06-.95-3.13-3.07-2.66-5.23,.45-2.1,2.33-3.62,4.55-3.62,4.49-.02,8.97,0,13.46,0h.72c.13-.41,.21-.78,.36-1.12,.69-1.55,1.92-2.35,3.6-2.46,.29-.02,.58-.01,.87,0,.98,.04,1.81-.06,2.68-.77,1.58-1.29,3.98-.69,5.06,1.06,.11,.19,.21,.39,.35,.64,.87-.35,1.72-.73,2.6-1.03,.5-.17,1.03-.31,1.55-.32,3.79-.03,7.59-.01,11.38-.01h.2c.64,.03,1.06,.4,1.08,.96,.02,.58-.4,1.03-1.06,1.04-1.07,.02-2.14,0-3.21,0-2.3,0-4.6,.04-6.9-.02-1.28-.04-2.47,.15-3.62,.72-.57,.29-1.4,.37-1.7,.82-.3,.45-.12,1.24-.12,1.89,0,1.19,.03,1.13,1.11,1.66,1.62,.79,3.3,1.03,5.1,1.01,5.24-.07,10.49-.02,15.73-.03,2.14,0,3.59-1.94,2.97-3.92-.38-1.22-1.51-2.07-2.81-2.11-.69-.02-1.38,0-2.07,0-.71-.02-1.16-.44-1.13-1.05,.02-.57,.46-.96,1.14-.95,1,.01,2.02-.05,3,.13,2.51,.45,4.22,2.79,4,5.32-.21,2.54-2.34,4.58-4.9,4.59-6.11,.03-12.23,.02-18.34,0-.48,0-.97-.16-1.42-.32-.86-.31-1.7-.68-2.67-1.07-.09,.45-.24,.84-.25,1.24-.02,1.96-.02,3.93,0,5.89,0,.22,.18,.55,.37,.64,1.51,.76,2.25,1.98,2.26,3.65,.02,1.67,0,3.35,0,5.12,1.03,0,2.04-.12,3.02,.03,1.52,.23,2.53-.55,3.52-1.47,.15-.14,.23-.37,.31-.57,.45-1.17,1.41-1.86,2.65-1.9,.09,0,.18,0,.27,0,1.16,.07,2.09,.05,2.8-1.28,.81-1.52,2.49-1.83,4.17-1.66,.51,.05,.8,.39,.84,.89,.04,.54-.23,.91-.75,1.03-.28,.06-.57,.05-.86,.06-1.44,.05-2.37,.98-2.38,2.43-.01,1.85,0,3.7,0,5.56v13.79c0,1.81,.9,2.72,2.71,2.73,2.19,0,4.37,0,6.66,0,0-1.01-.05-1.99,.02-2.95,.07-.98-.08-1.79-.98-2.34-.19-.12-.34-.36-.46-.57-.65-1.18-.29-3.78,.66-4.76,.41-.42,.83-.78,.8-1.51-.03-.72-.17-1.28-.75-1.74-.78-.62-1.06-1.46-.99-2.44,.03-.4,0-.8,0-1.21,0-.85,.35-1.52,1.03-2,.55-.39,.72-.87,.69-1.53-.05-1.13-.01-2.26-.01-3.47-.66,0-1.26,0-1.85,0-.77-.02-1.23-.42-1.21-1.04,.02-.59,.46-.95,1.21-.96,.65,0,1.29-.02,1.94,0,1.1,.05,1.9,.83,1.92,1.92,.03,1.5,0,2.99,0,4.49,0,.79-.47,1.31-1.02,1.79-.95,.83-1.05,2.37-.09,3.18,1.42,1.2,1.26,2.73,.99,4.24-.1,.56-.68,1.07-1.1,1.54-.72,.81-.72,2.35,.11,3.01,.84,.67,1.2,1.48,1.14,2.56-.07,1.2,0,2.41-.02,3.62,0,1.32-.79,2.13-2.12,2.15-2.3,.02-4.6,.03-6.9,0-1.81-.02-3.15-.88-3.94-2.51-.16-.34-.34-.46-.7-.45-.65,.02-1.3,.03-1.94-.02-1.21-.09-1.96-.77-2.51-1.83-.29-.56-.86-.97-1.31-1.44-.5-.53-1.09-.64-1.81-.56-1.21,.14-2.44,.16-3.73,.23v4.2c0,2.55-.92,3.76-3.46,4.46,0,.32,0,.67,0,1.02-.04,2.12-1.47,3.59-3.59,3.59-9.84,.01-19.68,.01-29.52,0-2.13,0-3.54-1.47-3.56-3.6,0-.25,.02-.49-.01-.74-.02-.13-.12-.33-.22-.34-1.74-.3-2.68-1.44-3.24-3.01v-5.36c.35-.43,.71-.82,1.35-.57,.62,.24,.67,.76,.67,1.32-.01,1.09,0,2.19,0,3.28,0,1.76,.61,2.38,2.37,2.38H54.95c1.71,0,2.35-.64,2.35-2.34v-24.1c0-1.67-.64-2.31-2.3-2.31H19.98c-1.64,0-2.28,.64-2.28,2.26,0,5.27,0,10.53,0,15.8,0,.58-.08,1.1-.69,1.31-.61,.21-1.02-.14-1.32-.63v-17.68h0Zm28.21-13.12h-13.84c-1.39,0-2.45,.79-2.73,2.01-.3,1.32,.32,2.48,1.65,3.08,.81,.37,1.62,.74,2.45,1.06,.8,.32,1.2,.86,1.16,1.74-.03,.71,0,1.41,0,2.13h17.89v-6.44c-.78,0-1.54,0-2.29,0-1.17-.01-2.23-.38-2.97-1.29-.51-.64-.84-1.43-1.33-2.3Zm-22.73,42.87v.78c0,1.3,.51,1.83,1.82,1.83,9.68,0,19.36,0,29.03,0,.15,0,.31,0,.47-.03,.74-.1,1.23-.56,1.31-1.3,.05-.41,0-.83,0-1.28H21.17Zm38.18-21.7v11c1.25-.07,2.45-.07,3.64-.21,1.07-.13,2.03-.08,2.82,.76,.01,.01,.08-.01,.13-.03v-12.4c-.17,.1-.3,.15-.38,.23-.53,.57-1.19,.69-1.94,.67-1.4-.04-2.8-.01-4.27-.01h0Zm11.48,14.64v-18.57h-1.5c-1.16,0-1.35,.19-1.35,1.37v13.04c0,1.05-.01,2.1,0,3.14,.01,.7,.29,.98,.98,1.01,.6,.02,1.2,0,1.86,0h0ZM51.99,28.72v2.34c.02,1.03,.64,1.71,1.56,1.73,.93,.02,1.61-.65,1.63-1.66,.02-1.56,.02-3.12,0-4.68-.02-1.01-.7-1.68-1.63-1.66-.9,.02-1.53,.68-1.55,1.66-.02,.76,0,1.51,0,2.27h0Zm-2.03-2.53c-1.29,.08-2.65-.37-3.52,.98-.52,.8-.45,2.68,.1,3.4,.92,1.18,2.21,.74,3.41,.82v-5.19h0Zm2.62,8.57v5.05h2v-5.05h-2Z"/><path class="cls-2" d="M31.98,58.5h-8.7c-2.09,0-3.09-.99-3.1-3.06,0-2.77,0-5.54,0-8.3,0-1.99,1.03-3.02,3.01-3.02h17.54c2,0,3.04,1.04,3.04,3.06,0,2.77,0,5.54,0,8.3,0,1.97-1.05,3.01-3.02,3.01-2.92,0-5.85,0-8.77,0h0Zm-.01-12.37h-8.77c-.86,0-1.01,.15-1.01,1.02,0,2.79,0,5.58,0,8.37,0,.82,.16,.98,.99,.98,5.87,0,11.74,0,17.6,0,.81,0,.98-.17,.99-.98,0-2.79,0-5.58,0-8.37,0-.84-.18-1.01-1.03-1.01h-8.77Z"/><path class="cls-2" d="M35.27,64.47c0,1.67-1.32,3.02-2.99,3.04-1.68,.02-3.06-1.35-3.06-3.05s1.39-3.07,3.07-3.05c1.66,.02,2.99,1.38,2.99,3.05Zm-3.02-1.04c-.55,0-1.01,.46-1.02,1.02,0,.59,.47,1.07,1.05,1.05,.56-.02,.99-.47,.98-1.04,0-.56-.46-1.02-1.01-1.02h0Z"/><path class="cls-2" d="M27.21,64.45c0,1.68-1.39,3.07-3.06,3.06-1.66-.02-3-1.37-3-3.03,0-1.69,1.38-3.08,3.05-3.06,1.65,.02,3.01,1.39,3.02,3.04Zm-2.01,.03c.01-.55-.44-1.03-.99-1.05-.54-.02-1.02,.42-1.05,.98-.03,.6,.42,1.08,1.01,1.08,.55,0,1.02-.46,1.03-1.01h0Z"/><path class="cls-2" d="M49.34,65.46c-1.61,0-3.21,0-4.82,0-.6,0-.97-.32-1.02-.93-.05-.57,.34-.98,.97-1.06,.15-.02,.31-.01,.47-.01h8.91c.11,0,.22,0,.34,0,.68,.05,1.11,.44,1.11,1.01,0,.58-.43,.98-1.12,.99-1.61,.01-3.21,0-4.82,0h0Z"/><path class="cls-2" d="M50.78,46.77c1,0,2,0,3.01,0,.72,0,1.12,.35,1.15,.94,.03,.62-.39,1.05-1.11,1.06-2.05,.02-4.1,.02-6.15,0-.71,0-1.15-.46-1.12-1.06,.03-.58,.45-.93,1.15-.94,1.02-.01,2.05,0,3.07,0h0Z"/><path class="cls-2" d="M50.69,53.85c-.96,0-1.92,0-2.87,0-.79,0-1.25-.37-1.26-.98-.02-.62,.43-1.01,1.22-1.02,1.98,0,3.96,0,5.95,0,.8,0,1.23,.38,1.22,1.01,0,.63-.44,.99-1.24,1-1,.01-2,0-3.01,0h0Z"/><path class="cls-2" d="M39.52,65.45c-.27,0-.54,.02-.8,0-.54-.05-.87-.38-.91-.9-.04-.56,.26-.98,.82-1.04,.61-.07,1.25-.07,1.86,0,.57,.06,.85,.48,.8,1.05-.04,.54-.37,.85-.91,.89-.29,.02-.58,0-.87,0h0Z"/></g><rect class="cls-1" width="100" height="100"/></g></g></svg>