<?xml version="1.0" encoding="UTF-8"?><svg id="Layer_2" xmlns="http://www.w3.org/2000/svg" viewBox="0 0 426 426"><defs><style>.cls-1{fill:none;}.cls-2{fill:#a91b26;}.cls-3{fill:#1d1d1b;}</style></defs><g id="Layer_2-2"><g><g><path class="cls-2" d="M153.83,315.28l-.78,1.53,.86-1.49-.08-.04Zm59.41-101.77v.99l.84,.48,.86-1.47h-1.71Z"/><path class="cls-3" d="M153.83,315.28l-.78,1.53,.86-1.49-.08-.04Zm59.41-101.77v.99l.84,.48,.86-1.47h-1.71Z"/><g><path class="cls-2" d="M334.93,280.91c.01-.11,.01-.23,.01-.33V145.41c0-.75-.16-1.48-.46-2.08-.05-.12-.11-.25-.2-.38-.42-.73-1.04-1.35-1.78-1.78l-.25-.13c-25.63-15.24-52.06-30.36-77.64-44.97-12.82-7.33-26.1-14.92-39.08-22.41l-.1-.06s-.05-.03-.07-.04l-.49-.29-.08,.02c-1.38-.56-2.95-.44-4.25,.31l-116.88,67.49c-.05,.02-.1,.05-.16,.08-.74,.43-1.36,1.05-1.79,1.79l-1.09,1.89,.44,.23c-.01,.11-.01,.22-.01,.33v135.16c0,.75,.17,1.48,.46,2.08,.06,.12,.12,.26,.2,.37,.42,.74,1.05,1.36,1.79,1.79l117.06,67.57c.75,.44,1.59,.67,2.45,.67s1.69-.23,2.44-.67l1.69-.97,115.2-66.52c.06-.03,.11-.06,.16-.08,.74-.43,1.37-1.05,1.79-1.79l1.1-1.89-.45-.23ZM98.95,147.14l55.13-31.84h0l55.14-31.83-.08,33.42v2.06c-.01,6.14,2.23,11.52,6.3,15.14,1.43,1.28,3.04,2.28,4.78,2.98s3.52,1.05,5.28,1.05c3.34,0,6.33-1.28,8.46-3.6,1.76-1.67,3.78-2.96,6.02-3.86,2.27-.92,4.69-1.38,7.18-1.38,5.13,0,9.96,1.99,13.59,5.63,3.63,3.64,5.64,8.46,5.64,13.59s-2.01,9.97-5.64,13.6c-3.63,3.63-8.46,5.63-13.59,5.63-2.29,0-4.54-.39-6.65-1.17-2.07-.76-3.98-1.87-5.68-3.29-2.08-2.2-5.09-3.44-8.47-3.52-1.95-.05-3.98,.33-5.89,1.05-1.97,.75-3.78,1.84-5.38,3.25-3.25,2.89-5.28,6.87-5.81,11.41h-.14v36.82l-30.93,17.52c-3.61,1.95-6.64,1.58-8.56,.93-1.13-.38-2.19-.98-3.09-1.73-.84-.69-1.53-1.52-1.99-2.39-.64-1.17-.82-2.33-.51-3.24,.06-.19,.12-.39,.15-.56,.62-3.22,.67-6.49,.14-9.73-.53-3.22-1.62-6.3-3.24-9.16-3.64-6.43-9.57-11.05-16.7-13.03-7.12-1.96-14.58-1.05-21.01,2.6-6.43,3.64-11.05,9.56-13.03,16.69-1.96,7.12-1.05,14.58,2.59,21.01,1.76,3.11,4.05,5.8,6.82,8,2.78,2.21,5.91,3.86,9.38,4.88,.1,.03,.22,.06,.26,.07,1.21,.26,1.94,1.16,2.35,1.87,.38,.68,.64,1.47,.76,2.37,.12,.97,.08,1.98-.14,3.02-.69,3.19-2.97,6.03-6.43,7.98l-27,15.3v-127.58Zm114.05,197.55l-57.01-32.92c-.06-.04-.11-.07-.17-.1l-52.56-30.34,26.59-15.07c5.44-3.09,9.08-7.76,10.24-13.19,.41-1.91,.49-3.84,.25-5.72-.26-1.89-.83-3.64-1.72-5.21-1.67-2.92-4.28-4.93-7.36-5.66-2.41-.73-4.62-1.89-6.56-3.44-1.98-1.57-3.62-3.5-4.87-5.72-2.6-4.6-3.26-9.93-1.85-15.02,1.41-5.09,4.71-9.33,9.32-11.93,4.59-2.6,9.92-3.26,15.01-1.85,5.1,1.41,9.34,4.72,11.94,9.32,1.16,2.05,1.93,4.25,2.31,6.54,.36,2.23,.34,4.49-.06,6.73-.92,2.95-.52,6.24,1.12,9.28,.94,1.73,2.28,3.35,3.9,4.69,1.66,1.39,3.54,2.45,5.58,3.15,4.8,1.65,10.08,1.13,14.83-1.44,.08-.04,.15-.09,.15-.09l30.99-17.55,30.96,17.61c3.53,2.1,4.76,4.88,5.17,6.85,.25,1.17,.29,2.41,.1,3.56-.17,1.07-.52,2.09-1.03,2.93-.69,1.16-1.59,1.9-2.53,2.11-.2,.04-.38,.09-.55,.15-3.1,1.12-5.93,2.76-8.42,4.85s-4.59,4.62-6.21,7.49c-3.65,6.42-4.59,13.87-2.62,21,1.93,7.03,6.46,12.92,12.75,16.58l.25,.14c6.42,3.65,13.87,4.59,21,2.62,7.04-1.93,12.92-6.46,16.59-12.75l.14-.25c1.76-3.1,2.89-6.45,3.36-9.95,.48-3.52,.28-7.05-.59-10.48-.02-.08-.05-.16-.09-.33-.4-1.17,0-2.26,.4-2.97,.38-.67,.95-1.32,1.65-1.87,.76-.61,1.66-1.09,2.65-1.43,3.1-1.05,6.7-.55,10.16,1.42l26.38,15-109.6,63.28Zm.24-130.2v-.99h1.71l-.86,1.47-.84-.48Zm-60.19,102.32l.78-1.53,.08,.04-.86,1.49Zm174-41.95l-26.93-15.31c-5.44-3.1-11.32-3.82-16.58-2.04-1.86,.63-3.56,1.54-5.05,2.73-1.49,1.18-2.69,2.58-3.59,4.14-1.67,2.92-2.05,6.2-1.08,9.22,.61,2.44,.74,4.93,.4,7.4-.33,2.44-1.11,4.77-2.31,6.94-.06,.1-.12,.22-.19,.32-2.61,4.51-6.83,7.76-11.86,9.14-5.03,1.39-10.3,.75-14.86-1.79-.11-.06-.22-.12-.33-.19-4.5-2.62-7.74-6.83-9.13-11.85-1.4-5.1-.73-10.44,1.88-15.03,1.16-2.04,2.65-3.84,4.44-5.34,1.73-1.46,3.68-2.6,5.8-3.39,3-.73,5.63-2.76,7.39-5.73,1-1.69,1.7-3.67,2.03-5.74,.34-2.14,.29-4.29-.16-6.4-1.05-4.98-4.21-9.24-8.85-12.01-.07-.04-.14-.08-.15-.08l-30.89-17.57v-34.93c.13-3.84,1.85-6.14,3.28-7.4,.86-.76,1.88-1.38,2.94-1.78,1-.37,2.04-.57,2.96-.55,1.24,.03,2.27,.4,2.89,1.05,.13,.16,.28,.31,.45,.45,2.45,2.09,5.21,3.71,8.23,4.82,3,1.11,6.16,1.68,9.38,1.68,7.24,0,14.06-2.83,19.18-7.95,5.12-5.12,7.94-11.93,7.94-19.18s-2.82-14.06-7.94-19.18c-5.12-5.12-11.94-7.95-19.18-7.95-3.49,0-6.89,.66-10.12,1.95-3.17,1.28-6.05,3.13-8.55,5.49-.11,.1-.22,.21-.34,.34-.78,.87-1.87,1.06-2.65,1.06s-1.56-.16-2.34-.48c-.87-.35-1.71-.87-2.47-1.55-2.37-2.1-3.66-5.38-3.66-9.23v-1.26l.07-34.04,109.95,63.48v127.73Z"/><path class="cls-2" d="M325.28,172.98v29.36c0,1.79-1.45,3.24-3.24,3.24s-3.24-1.45-3.24-3.24v-29.36c0-1.79,1.46-3.24,3.24-3.24s3.24,1.45,3.24,3.24Z"/></g></g><rect class="cls-1" width="426" height="426"/></g></g></svg>