<?xml version="1.0" encoding="UTF-8"?><svg id="Layer_2" xmlns="http://www.w3.org/2000/svg" viewBox="0 0 100 100"><defs><style>.cls-1{fill:none;}.cls-2{fill:#a91b26;}</style></defs><g id="Layer_1-2"><g><g><path class="cls-2" d="M84.85,75.58c-.44,1.44-1.28,2.5-2.83,2.79-.55,.11-1.13,.07-1.81,.11v.63c0,1.25,0,2.49,0,3.74,0,.95-.43,1.41-1.36,1.41-2.97,.01-5.94,.01-8.91,0-.91,0-1.33-.43-1.35-1.34-.02-1.22,0-2.45,0-3.67v-.81c-.41,0-.74,0-1.07,0-1.94-.02-3.42-1.3-3.54-3.22-.08-1.3-.12-2.66,.13-3.93,.55-2.8,2.31-4.59,5.06-5.39,.19-.06,.38-.11,.58-.17-1.73-3.41-1.37-6.2,1.02-8.09,2.2-1.74,5.29-1.68,7.39,.12,2.31,1.99,2.63,4.86,.85,7.96,.3,.08,.6,.15,.89,.25,2.58,.86,4.16,2.63,4.8,5.26,.04,.17,.1,.35,.14,.52v3.81h0Zm-6.93,6.33v-9.24h2.29v3.45h.87c1.02,0,1.43-.42,1.44-1.45,0-.72,.02-1.45,0-2.18-.07-1.55-.74-2.78-2.01-3.68-1.51-1.07-3.21-.83-4.98-.81v3.43h-2.31v-3.51c-1.17,.06-2.26,.02-3.32,.2-1.78,.29-3.32,1.9-3.54,3.68-.13,1.05-.09,2.13-.08,3.19,0,.62,.38,1.02,1,1.11,.41,.05,.84,0,1.32,0v-3.48c.6,0,1.14,.03,1.68,0,.51-.04,.66,.14,.65,.65-.02,2.61-.01,5.21-.01,7.82v.82h7Zm-3.54-16.26c1.94,0,3.52-1.57,3.51-3.49-.01-1.89-1.58-3.46-3.47-3.47-1.94,0-3.5,1.55-3.49,3.5,0,1.92,1.53,3.45,3.45,3.46h0Z"/><path class="cls-2" d="M84.85,35.02c-.42,.66-.76,1.39-1.28,1.95-.63,.68-1.52,.85-2.44,.82-.27,0-.54,0-.87,0-.02,.26-.04,.48-.04,.69,0,1.27,0,2.54,0,3.81-.01,.86-.45,1.31-1.31,1.31-2.99,0-5.99,0-8.98,0-.9,0-1.31-.42-1.32-1.35-.02-1.45,0-2.9,0-4.46-.43,0-.81,.01-1.18,0-1.89-.07-3.31-1.32-3.43-3.19-.08-1.31-.13-2.66,.12-3.93,.57-2.88,2.39-4.7,5.25-5.45,.11-.03,.22-.06,.32-.1,.02,0,.03-.04,.04-.05-1.69-3.71-1.3-6.28,1.22-8.18,2.15-1.62,5.19-1.51,7.23,.25,2.29,1.97,2.6,4.72,.86,7.97,.18,.05,.35,.09,.52,.14,2.78,.79,4.5,2.59,5.17,5.4,.04,.15,.09,.3,.14,.44v3.95h0Zm-11.6-7.62c-1.1,0-2.12-.1-3.12,.02-1.89,.22-3.55,1.89-3.77,3.78-.12,1.03-.08,2.08-.07,3.13,0,.58,.33,1.01,.92,1.09,.43,.06,.88,.01,1.4,.01v-3.4h2.31v9.21h6.99v-9.18h2.34v3.4h.74c1.18,0,1.55-.37,1.56-1.53,0-.7,.02-1.41,0-2.11-.08-2.06-1.45-3.85-3.46-4.28-1.11-.24-2.28-.18-3.52-.26v3.49h-2.3v-3.36h0Zm-2.32-5.9c-.01,1.95,1.55,3.51,3.48,3.5,1.9-.01,3.46-1.57,3.47-3.46,.01-1.91-1.59-3.52-3.5-3.51-1.9,0-3.44,1.55-3.46,3.47Z"/><path class="cls-2" d="M66.26,50.58c0,8.99-7.31,16.3-16.27,16.27-8.97-.03-16.27-7.36-16.23-16.32,.04-9.01,7.31-16.24,16.31-16.21,8.97,.03,16.2,7.29,16.19,16.26h0Zm-20.4-13.25c.44,.88,.83,1.73,1.28,2.53,.2,.35,.5,.7,.84,.92,1.54,.96,3.09,1.89,4.66,2.81,.59,.34,.88,.8,.87,1.49-.02,1.36,.02,2.72-.02,4.08-.01,.38-.14,.82-.36,1.13-1.81,2.58-3.65,5.14-5.48,7.7-.62,.87-1.19,.95-2.06,.3-1.31-.98-2.59-1.99-3.93-2.93-.63-.44-.93-.99-1.03-1.73-.25-1.75-.56-3.49-.85-5.23-.04-.21-.11-.5-.26-.58-.9-.49-1.83-.94-2.76-1.4-2.91,9.37,4.41,18.27,13.26,18.04,0-.53,.05-1.08-.01-1.61-.1-.9,.27-1.48,1-1.99,1.13-.78,2.21-1.65,3.33-2.49-.16-.33-.27-.64-.44-.9-.49-.76-.42-1.44,.06-2.21,1.05-1.64,2-3.35,3.04-5,.23-.36,.61-.68,.99-.85,.94-.44,1.91-.83,2.9-1.16,.4-.13,.88-.1,1.3,0,.52,.11,1.01,.36,1.54,.57-.63-8.03-9.4-14.28-17.86-11.48h0Zm-8.24,6.91c1.07,.53,2.08,1.09,3.13,1.55,.78,.34,1.11,.89,1.23,1.7,.25,1.77,.56,3.53,.87,5.29,.04,.26,.11,.59,.28,.73,1.02,.81,2.08,1.58,3.1,2.35,.09-.08,.14-.11,.16-.14,1.03-1.43,1.96-2.96,3.11-4.29,1.39-1.59,1.94-3.34,1.69-5.41-.05-.42-.12-.69-.52-.92-1.39-.8-2.75-1.67-4.15-2.46-.64-.36-1.08-.84-1.39-1.51-.45-.98-.96-1.94-1.47-2.96-2.68,1.4-4.66,3.4-6.06,6.06h0Zm14.77,20.01c1.76-.15,4.25-1.21,6.04-2.6,3.17-2.46,4.95-5.7,5.45-9.68,.05-.43-.08-.6-.47-.81-1.21-.65-2.37-.78-3.57-.02-.06,.04-.12,.06-.19,.08-.51,.13-.84,.45-1.1,.92-.52,.95-1.03,1.93-1.68,2.79-.77,1.02-.9,1.93-.15,3.03,.53,.77,.33,1.28-.44,1.85-1.01,.77-1.98,1.6-3.06,2.26-.9,.56-1.03,1.27-.83,2.17Z"/><path class="cls-2" d="M21.02,65.74c-2.21-3.24-1.01-6.4,.85-7.99,2.14-1.82,5.35-1.82,7.51,0,1.87,1.58,3.04,4.76,.86,7.98,.31,.09,.6,.16,.89,.25,2.7,.82,4.66,3.18,4.89,6.01,.09,1.08,.11,2.18,.02,3.26-.15,1.9-1.59,3.17-3.5,3.2-.34,0-.68,0-1.11,0v3.7c0,1.96-.17,2.13-2.14,2.13h-7.89c-1.2,0-1.58-.39-1.59-1.59,0-1.38,0-2.76,0-4.23-.42,0-.8,0-1.18,0-1.94-.04-3.43-1.52-3.45-3.47-.01-1.02-.07-2.05,.04-3.06,.34-3.01,2.35-5.25,5.3-6.03,.15-.04,.3-.09,.5-.14h0Zm3.43,2.3c-1.01,0-1.95-.09-2.86,.02-2.18,.26-3.76,1.8-4.04,3.96-.13,1-.08,2.04-.04,3.06,.02,.58,.42,.96,1,1.03,.41,.05,.84,0,1.31,0v-3.44h2.32v9.22h6.95v-.79c0-2.61,0-5.21,0-7.82,0-.26-.14-.64,.35-.65,.63,0,1.26,0,1.97,0v3.49h.89c1,0,1.42-.4,1.43-1.39,0-.86,.03-1.73-.05-2.58-.16-1.69-1.05-2.91-2.55-3.68-1.38-.7-2.85-.48-4.4-.46v3.43h-2.3v-3.41h0Zm4.64-5.75c.04-1.93-1.43-3.52-3.34-3.58-1.93-.06-3.55,1.45-3.62,3.38-.07,1.89,1.47,3.52,3.36,3.57,1.98,.05,3.55-1.43,3.6-3.37h0Z"/><path class="cls-2" d="M31.42,37.78v4.12c0,1.38-.32,1.7-1.67,1.7h-8.44c-1.12,0-1.51-.39-1.51-1.51,0-1.4,0-2.81,0-4.31-.48,0-.91,.02-1.33,0-1.68-.09-3.11-1.26-3.24-2.93-.12-1.46-.15-2.98,.15-4.4,.57-2.74,2.38-4.45,5.08-5.21,.17-.05,.34-.09,.52-.14-1.74-3.33-1.42-6.06,.91-8.01,2.1-1.76,5.11-1.81,7.29-.13,2.43,1.87,2.79,4.49,1.1,8.14,.11,.04,.21,.08,.31,.11,3.14,.77,5.19,3.12,5.44,6.33,.07,.95,.08,1.91,.03,2.86-.11,2.02-1.51,3.34-3.53,3.4-.34,0-.67,0-1.11,0h0Zm-9.27-5.75v9.19h6.94v-9.17h2.35v3.41h.81c1.1,0,1.48-.38,1.49-1.47,0-.84,.02-1.68-.05-2.52-.16-1.88-1.49-3.52-3.34-3.93-1.13-.24-2.33-.19-3.59-.28v3.5h-2.34v-3.41c-.93,0-1.77-.04-2.61,0-2.06,.1-3.86,1.61-4.19,3.63-.18,1.11-.14,2.26-.12,3.39,.01,.61,.42,1,1.05,1.05,.4,.03,.8,0,1.26,0v-3.42h2.34Zm6.93-10.52c-.01-1.91-1.56-3.46-3.46-3.47-1.92,0-3.51,1.6-3.5,3.51,.01,1.9,1.57,3.45,3.48,3.46,1.93,0,3.49-1.56,3.48-3.51Z"/><path class="cls-2" d="M63.3,24.79c-.35,.68-.68,1.32-1.03,1.99-8.17-3.91-16.31-3.92-24.5,0-.19-.34-.37-.67-.54-1.01-.16-.32-.32-.64-.48-.96,7.43-4.16,18.2-4.54,26.55-.02h0Z"/><path class="cls-2" d="M60.71,75.08l.89,2.02c-4.67,3.24-17.08,3.27-23.17,.04,.29-.67,.58-1.34,.9-2.06,7.14,2.94,14.26,2.94,21.39,0h0Z"/><path class="cls-2" d="M23.66,55.02c-.79,.13-1.49,.25-2.27,.38-.54-3.24-.53-6.42,0-9.67,.77,.13,1.47,.25,2.26,.38-.44,2.96-.47,5.89,.01,8.91Z"/><path class="cls-2" d="M76.36,46.12c.79-.13,1.5-.25,2.27-.38,.54,3.24,.53,6.42,0,9.66-.77-.13-1.48-.25-2.26-.38,.44-2.97,.47-5.92-.01-8.9h0Z"/><path class="cls-2" d="M73.3,73.84h2.23v2.23h-2.23v-2.23Z"/><path class="cls-2" d="M75.54,33.18v2.24h-2.23v-2.24h2.23Z"/><path class="cls-2" d="M24.48,76.09v-2.23h2.24v2.23h-2.24Z"/><path class="cls-2" d="M26.74,33.18v2.23h-2.23v-2.23h2.23Z"/></g><rect class="cls-1" width="100" height="100"/></g></g></svg>