<?xml version="1.0" encoding="UTF-8"?><svg id="Layer_2" xmlns="http://www.w3.org/2000/svg" viewBox="0 0 100 100"><defs><style>.cls-1{fill:none;}.cls-2{fill:#a91b26;}</style></defs><g id="Layer_1-2"><g><g><path class="cls-2" d="M18.06,58.75c.2-1.14,.35-2.3,.61-3.43,1.95-8.43,9.01-14.98,17.57-16.33,11.43-1.81,22.23,5.65,24.59,16.98,2.47,11.89-5.4,23.54-17.36,25.69-.73,.13-1.47,.24-2.2,.35h-3.24c-.05-.03-.11-.07-.16-.08-2.78-.24-5.42-.99-7.93-2.22-.16-.08-.45,.03-.65,.12-1.21,.58-2.39,1.22-3.62,1.76-.54,.24-1.16,.28-1.74,.41h-2.37c-.85-.22-1.71-.39-2.54-.67-.36-.12-.64-.46-.96-.7v-.63c.31-.23,.59-.51,.93-.68,1.84-.88,3.25-2.2,4.24-3.99,.24-.43,.22-.71-.11-1.09-2.08-2.44-3.55-5.22-4.32-8.34-.32-1.28-.5-2.6-.74-3.91v-3.25h0Zm3.55,21.22c.16,.07,.22,.1,.27,.11,.12,.02,.25,.03,.37,.03,2.39,.1,4.5-.62,6.34-2.15,.73-.61,.91-.63,1.72-.21,4.1,2.16,8.42,2.85,12.98,2.01,11.7-2.15,18.88-14.35,15.09-25.64-3.27-9.74-13.13-15.29-23.17-13.04-8.7,1.95-15.15,9.88-15.28,18.79-.07,5.2,1.59,9.77,5.06,13.65,.54,.61,.67,1.15,.28,1.85-.23,.42-.42,.86-.66,1.27-.75,1.29-1.77,2.35-3.01,3.31h0Z"/><path class="cls-2" d="M61.86,18c1.18,.2,2.38,.35,3.55,.62,8.17,1.86,14.78,8.88,16.18,17.16,1.13,6.68-.48,12.63-4.77,17.85-.28,.34-.28,.58-.08,.93,1,1.83,2.43,3.21,4.33,4.07,.48,.22,.91,.46,.87,1.07-.04,.57-.47,.78-.94,.94-3.59,1.21-6.97,.77-10.08-1.41-.45-.31-.74-.27-1.21-.1-1.65,.62-3.32,1.16-4.99,1.72-.15,.05-.33,.07-.49,.08-.54,.05-.97-.25-1.05-.76-.08-.53,.16-.9,.67-1.05,.58-.16,1.19-.22,1.75-.43,1.4-.53,2.79-1.07,4.14-1.69,.64-.29,1.09-.28,1.63,.19,1.93,1.69,4.2,2.37,6.75,2.17,.07,0,.15-.02,.33-.05-.35-.3-.63-.53-.91-.78-1.27-1.12-2.21-2.47-2.88-4.03-.27-.63-.17-1.08,.27-1.58,3.5-3.91,5.21-8.5,5.13-13.75-.14-9.23-7-17.31-16.07-18.96-10.15-1.85-19.79,4.12-22.64,14.02-.15,.52-.25,1.05-.38,1.58-.17,.73-.57,1.09-1.12,.99-.6-.1-.87-.59-.72-1.35,1.34-6.46,4.88-11.36,10.57-14.67,2.66-1.55,5.54-2.43,8.61-2.7,.14-.01,.28-.07,.42-.1h3.12Z"/><path class="cls-2" d="M57.51,39.7c.01,.52-.35,.92-.86,.95-.53,.03-.98-.37-.99-.89-.02-.51,.42-.97,.93-.96,.5,0,.9,.4,.92,.9h0Z"/><path class="cls-2" d="M60.37,38.79c.52,.02,.92,.46,.89,.99-.03,.51-.42,.87-.94,.86-.53-.01-.94-.46-.9-.98,.04-.49,.47-.89,.96-.88Z"/><path class="cls-2" d="M64.1,40.65c-.53,0-.96-.41-.95-.93,0-.49,.43-.91,.91-.92,.52-.01,.94,.42,.93,.95,0,.52-.38,.9-.9,.91h0Z"/><path class="cls-2" d="M39.31,54.56c-.07,.32-.13,.7-.2,1.1,2.08-.08,4-.3,5.77-.72l.02,1.55c-1.68,.3-3.92,.52-5.97,.62-.05,.57-.1,1.18-.15,1.8,.88-.23,1.83-.37,2.67-.37,.17,0,.33,0,.48,.02,.08-.3,.17-.8,.2-1.08l1.63,.4c-.1,.22-.23,.63-.35,.93,2.02,.6,3.28,2.12,3.28,4,0,2.38-1.48,4.55-5.45,5.17l-.9-1.38c3.1-.35,4.73-1.93,4.73-3.85,0-1.17-.73-2.2-2.12-2.63-.92,2.32-2.27,4.13-3.62,5.25,.12,.47,.27,.9,.4,1.32l-1.52,.45c-.08-.25-.17-.52-.25-.82-.87,.48-1.82,.8-2.72,.8-1.15,0-2.1-.7-2.1-2.23,0-2.15,1.83-4.37,4.15-5.45,.03-.77,.1-1.55,.17-2.27h-.82c-.78,0-2.08-.08-2.8-.12l-.05-1.55c.58,.1,2.05,.22,2.9,.22h.92c.03-.42,.08-.78,.12-1.12,.03-.3,.05-.65,.05-.88l1.72,.05c-.08,.25-.15,.55-.2,.8h0Zm-3.7,10.95c.57,0,1.28-.25,2.02-.73-.22-1.18-.37-2.53-.37-3.77-1.48,.9-2.53,2.37-2.53,3.57,0,.62,.28,.93,.88,.93Zm3.37-1.83c.97-.95,1.87-2.17,2.52-3.8h-.12c-1.02,0-1.92,.2-2.65,.47v.4c0,1.07,.1,2.03,.25,2.93h0Z"/></g><rect class="cls-1" width="100" height="100"/></g></g></svg>