<?xml version="1.0" encoding="UTF-8"?><svg id="Layer_2" xmlns="http://www.w3.org/2000/svg" viewBox="0 0 100 100"><defs><style>.cls-1{fill:none;}.cls-2{fill:#a91b26;}</style></defs><g id="Layer_1-2"><g><g><path class="cls-2" d="M16.94,81.72c.81-2.07,1.63-4.14,2.42-6.23,2.39-6.27,4.77-12.55,7.15-18.83,.2-.53,.51-.89,1.02-1.17,3.1-1.72,6.19-3.47,9.27-5.21,.19-.11,.37-.22,.6-.36-.12-.2-.22-.38-.33-.56-.89-1.42-1.8-2.83-2.68-4.25-7.03-11.38-.14-26.06,13.12-27.95,9.68-1.38,18.88,5.31,20.58,14.97,.81,4.58,0,8.88-2.43,12.86-.99,1.63-2.03,3.23-3.08,4.89,.2,.13,.37,.25,.55,.35,3.09,1.74,6.18,3.48,9.28,5.2,.54,.3,.87,.69,1.09,1.27,3.09,8.16,6.19,16.32,9.3,24.48,.07,.18,.17,.34,.25,.51v1.29h-1.29s-.05-.07-.08-.09c-5.07-2.85-10.15-5.7-15.21-8.56-.37-.21-.61-.13-.93,.05-3.55,2.01-7.11,4-10.66,6-1.51,.85-3,1.73-4.49,2.6h-.77c-.08-.07-.14-.15-.23-.2-5.01-2.82-10.03-5.64-15.04-8.47-.31-.18-.53-.14-.82,.02-2.13,1.21-4.26,2.4-6.4,3.61-2.97,1.68-5.93,3.36-8.9,5.04h-1.29v-1.29h0Zm49.55-46.32c-.07-.75-.1-1.5-.2-2.24-1.24-9.02-9.58-15.32-18.6-14.05-11.59,1.63-17.91,14.69-11.82,24.66,4.29,7.04,8.78,13.96,13.19,20.93,.56,.88,1.32,.89,1.87,.01,4.41-6.97,8.83-13.93,13.2-20.92,1.6-2.55,2.32-5.38,2.36-8.39h0Zm-27.22,17.46c-.08,.24-.1,.32-.12,.4-.47,2.18-.93,4.36-1.4,6.54-.15,.69-.61,1.02-1.17,.91-.57-.12-.85-.63-.71-1.3,.26-1.22,.52-2.43,.78-3.65,.24-1.14,.48-2.29,.74-3.51-.2,.09-.3,.13-.39,.18-2.75,1.55-5.51,3.09-8.25,4.66-.25,.14-.45,.45-.56,.72-2.63,6.87-5.25,13.74-7.86,20.62-.16,.43-.32,.87-.51,1.41,.21-.09,.3-.12,.39-.17,4.18-2.35,8.35-4.69,12.52-7.06,.23-.13,.42-.47,.48-.75,.62-2.79,1.2-5.58,1.81-8.37,.15-.69,.61-.99,1.2-.84,.55,.14,.81,.61,.68,1.26-.17,.82-.35,1.64-.52,2.45-.44,2.05-.87,4.11-1.31,6.19,4.65,2.61,9.26,5.21,13.89,7.81,.05-.14,.07-.18,.07-.22,0-4.21,.01-8.42,0-12.63,0-.17-.16-.36-.29-.49-.45-.47-1.02-.87-1.37-1.4-2.28-3.54-4.51-7.1-6.76-10.66-.41-.65-.82-1.3-1.31-2.08Zm21.48,0c-.23,.34-.36,.53-.49,.73-2.52,3.99-5.04,7.99-7.58,11.97-.32,.49-.74,.96-1.21,1.3-.37,.26-.51,.48-.51,.91,.01,3.97,0,7.95,0,11.92,0,.2,.03,.4,.05,.66,.27-.14,.46-.23,.64-.34,4.21-2.37,8.42-4.75,12.65-7.1,.5-.28,.62-.54,.5-1.1-.91-4.17-1.79-8.35-2.68-12.52-.45-2.09-.89-4.18-1.38-6.44h0Zm19.43,27.02c-.1-.31-.14-.45-.19-.59-2.73-7.2-5.46-14.39-8.21-21.58-.1-.27-.35-.54-.61-.68-2.35-1.35-4.71-2.67-7.07-3.99-.46-.26-.92-.51-1.45-.79,.02,.2,.01,.3,.04,.41,1.37,6.44,2.74,12.88,4.13,19.31,.06,.26,.31,.56,.55,.7,2.95,1.68,5.91,3.34,8.87,5,1.27,.72,2.54,1.43,3.95,2.23h0Z"/><path class="cls-2" d="M60.65,35.39c-.01,5.88-4.8,10.64-10.69,10.62-5.85-.02-10.61-4.8-10.6-10.64,0-5.88,4.8-10.64,10.69-10.62,5.85,.02,10.61,4.8,10.6,10.64h0Zm-1.94,.02c.03-4.78-3.88-8.71-8.66-8.73-4.81-.02-8.71,3.83-8.76,8.64-.05,4.77,3.85,8.73,8.63,8.76,4.84,.03,8.77-3.84,8.79-8.67h0Z"/><path class="cls-2" d="M56.77,35.46c-.07,3.79-3.14,6.75-6.91,6.68-3.69-.07-6.69-3.17-6.62-6.85,.07-3.78,3.14-6.75,6.91-6.68,3.69,.07,6.69,3.17,6.62,6.84h0Zm-1.93-.09c0-2.67-2.18-4.82-4.85-4.82-2.67,0-4.83,2.18-4.82,4.84,0,2.67,2.18,4.83,4.85,4.82,2.67,0,4.83-2.18,4.82-4.84Z"/></g><rect class="cls-1" width="100" height="100"/></g></g></svg>