<?xml version="1.0" encoding="UTF-8"?><svg id="Layer_2" xmlns="http://www.w3.org/2000/svg" viewBox="0 0 100 100"><defs><style>.cls-1{fill:none;}.cls-2{fill:#a91b26;}</style></defs><g id="Layer_1-2"><g><g><path class="cls-2" d="M60.57,16.67h2.61c.1,.04,.19,.1,.3,.11,9.06,1.3,14,10.8,9.84,18.93-.17,.33-.18,.56,0,.88,1.9,3.29,3.09,6.82,3.45,10.6,.12,1.31,.14,2.63,.2,3.95,.16,.04,.33,.08,.49,.12,2.83,.69,4.69,2.42,5.61,5.17,.14,.41,.22,.83,.33,1.25v1.82c-.06,.25-.13,.5-.19,.75-.28,1.25-.9,2.33-1.67,3.35-1.89,2.49-3.76,4.98-5.68,7.54-1.36-1.81-2.68-3.56-4.04-5.36-.14,.17-.24,.28-.34,.39-1.16,1.26-2.3,2.54-3.49,3.77-.33,.34-.49,.6-.32,1.06,.68,1.9,.69,3.87,.62,5.85-.04,1.29-.91,2.15-2.19,2.18-.76,.02-1.52,.03-2.28,0-.39-.01-.61,.1-.81,.46-2.96,5.13-10.15,5.13-13.11-.02-.19-.33-.39-.44-.76-.44-3.74,.01-7.48,.01-11.22,0-.36,0-.57,.1-.76,.43-2.99,5.18-10.11,5.16-13.17,0-.12-.2-.45-.39-.69-.4-1.35-.04-2.7-.06-4.04,0-1.32,.05-2.22-.45-2.67-1.7v-3.13c.31-.69,.7-1.36,1.49-1.51,.61-.11,.68-.4,.68-.92-.01-6.75,0-13.49,0-20.24,0-1.88,.75-2.62,2.65-2.63h1.69c.23-4.8,1.58-9.17,4.07-13.17-.23-.32-.45-.62-.65-.92-.81-1.2-1.24-2.53-1.28-3.97-.09-3.09,1.71-5.9,4.54-7.14,2.79-1.22,6.04-.63,8.26,1.55,.33,.32,.56,.39,1,.19,3.51-1.57,7.21-2.36,11.06-2.33,.42,0,.65-.13,.88-.49,1.53-2.39,3.62-4.15,6.29-5.13,1.07-.39,2.21-.59,3.31-.87h0Zm6.41,51.48c1.01-1.18,1.93-2.21,2.8-3.28,.69-.86,.66-.88,.03-1.77-2.81-3.95-1.46-9.25,2.88-11.28,.64-.3,1.34-.47,2.02-.71,.52-3.33-1.08-10.23-3.01-12.93-3.28,4.16-6.54,8.31-9.85,12.5-3.56-4.54-7.12-8.96-10.53-13.47-2.08-2.75-2.71-5.96-2.25-9.37,.11-.84,.34-1.67,.52-2.55-3.49,.08-6.78,.8-9.91,2.25,.02,.12,.02,.19,.04,.25,1.08,2.79,.62,5.35-1.18,7.71-1.79,2.35-3.55,4.72-5.32,7.08-.14,.19-.29,.36-.48,.6-1.41-1.87-2.78-3.69-4.19-5.56-2.03,3.57-3.12,7.28-3.29,11.33h18.4c1.74,0,3.48-.01,5.22,0,1.3,.01,2.16,.88,2.18,2.18,.02,1.19,0,2.39,0,3.58v.67h.81c3.02,0,6.04,0,9.06,0,1.9,0,3.06,.92,3.52,2.75,.45,1.81,.9,3.62,1.35,5.42,.37,1.47,.74,2.93,1.17,4.6h0Zm-46.04,4.44c.78,0,1.5-.03,2.21,0,.47,.03,.72-.13,.97-.55,2.91-4.98,10.06-4.99,12.98-.01,.24,.4,.47,.57,.96,.57,3.39-.02,6.78-.01,10.17-.01,.21,0,.42-.02,.67-.03v-21.44h-8.57v8.13c-.25-.11-.41-.16-.56-.24-1.3-.65-2.63-1.25-3.89-1.96-.69-.39-1.23-.36-1.91,0-1.42,.77-2.89,1.46-4.44,2.23v-8.16h-8.59v21.46h0Zm40.9-25.41c.14-.15,.24-.26,.33-.38,2.73-3.46,5.46-6.91,8.17-10.39,1.49-1.91,2.21-4.09,2.28-6.51,.24-8.21-8.54-13.67-15.8-9.82-6,3.18-7.59,10.94-3.37,16.43,1.49,1.94,3.03,3.86,4.55,5.78,1.27,1.62,2.54,3.23,3.85,4.88h0Zm-10.71,10.38v12.88c.09-.04,.14-.05,.17-.08,3.66-3.43,9.48-2.41,11.81,1.91,.07,.13,.24,.3,.36,.3,.77,.03,1.54,.01,2.39,.01-.55-2.21-1.08-4.3-1.61-6.43-2.2,0-4.35,0-6.5,0-1.47,0-2.34-.89-2.36-2.36,0-.61-.01-1.21,0-1.82,.03-1.39,.91-2.26,2.3-2.28,1.37-.02,2.74,0,4.11,0h.81c-.08-.33-.13-.56-.19-.79-.3-1.21-.47-1.35-1.68-1.35h-9.62Zm-18.34-17.9c1.62-2.22,3.3-4.27,4.7-6.5,1.39-2.22,.65-5.13-1.43-6.75-2.09-1.62-5.04-1.47-6.98,.35-1.9,1.79-2.27,4.73-.76,6.88,1.41,2,2.92,3.93,4.48,6.02h0Zm43.09,27.93c1.55-2.08,3.06-4.04,4.5-6.05,.87-1.23,1.09-2.65,.73-4.11-.57-2.29-2.07-3.67-4.38-4.11-2.06-.39-4.25,.61-5.4,2.41-1.18,1.85-1.13,4.19,.15,6,.65,.92,1.35,1.81,2.03,2.71,.77,1.02,1.53,2.04,2.36,3.14h0Zm-19.49,13.6c2.96,.06,5.43-2.32,5.48-5.29,.05-2.9-2.32-5.38-5.2-5.44-3.04-.07-5.5,2.25-5.58,5.26-.08,2.93,2.32,5.41,5.3,5.47Zm-25.75,0c2.98-.02,5.41-2.46,5.37-5.4-.04-2.98-2.45-5.35-5.44-5.33-2.94,.02-5.34,2.44-5.34,5.37,0,2.96,2.44,5.38,5.41,5.36h0Zm1.09-25.41c.93-.47,1.79-.87,2.63-1.32,.4-.22,.72-.23,1.14,0,.85,.47,1.73,.87,2.63,1.32v-4.64h-6.39v4.65h0Zm17.22,19.01h-10.79v2.06h10.79v-2.06Zm14.76-10.84c-.19-.75-.37-1.42-.53-2.05h-5.57v2.05h6.1Zm-44.91,12.9h4.31v-2.05h-4.31v2.05Zm47.36-2.05h-2.15v2.04h2.15v-2.04Z"/><path class="cls-2" d="M46.79,46.73v-2.05h2.11v2.05h-2.11Z"/><path class="cls-2" d="M53.2,46.73h-2.1v-2.05h2.1v2.05Z"/><path class="cls-2" d="M42.48,46.72v-2.04h2.11v2.04h-2.11Z"/><path class="cls-2" d="M53.24,29.57c0-4.76,3.85-8.61,8.62-8.6,4.75,0,8.62,3.89,8.61,8.63-.01,4.72-3.87,8.56-8.6,8.56-4.78,0-8.63-3.83-8.63-8.59h0Zm15.06,0c0-3.58-2.88-6.45-6.46-6.45-3.55,0-6.42,2.86-6.46,6.4-.04,3.53,2.88,6.47,6.45,6.49,3.55,.03,6.47-2.88,6.47-6.45h0Z"/><path class="cls-2" d="M32.75,33.86c-1.78,0-3.23-1.45-3.22-3.23,0-1.77,1.46-3.21,3.25-3.2,1.79,0,3.24,1.45,3.23,3.22,0,1.77-1.47,3.21-3.25,3.21h0Zm0-2.15c.59,0,1.07-.49,1.07-1.08,0-.59-.51-1.08-1.09-1.06-.57,.02-1.02,.47-1.03,1.05-.01,.6,.46,1.09,1.06,1.09h0Z"/><path class="cls-2" d="M79.09,58.61c0,1.77-1.47,3.23-3.24,3.22-1.77,0-3.23-1.47-3.23-3.24,0-1.77,1.47-3.23,3.24-3.22,1.77,0,3.23,1.47,3.22,3.24h0Zm-3.26-1.06c-.6,.01-1.06,.5-1.04,1.1,.02,.6,.51,1.04,1.12,1.02,.58-.03,1.01-.48,1-1.06,0-.61-.48-1.06-1.09-1.05h0Z"/><path class="cls-2" d="M59.68,75.81c0,1.78-1.44,3.22-3.22,3.22s-3.22-1.44-3.22-3.23,1.44-3.23,3.22-3.23c1.78,0,3.22,1.44,3.21,3.23h0Zm-3.25,1.06c.6,.02,1.09-.44,1.11-1.02,.02-.57-.47-1.08-1.05-1.1-.58-.02-1.09,.45-1.11,1.03-.02,.58,.45,1.07,1.04,1.09h0Z"/><path class="cls-2" d="M33.83,75.79c0,1.78-1.43,3.23-3.2,3.24-1.78,0-3.23-1.43-3.24-3.21,0-1.79,1.41-3.23,3.2-3.25,1.77-.02,3.23,1.43,3.24,3.21h0Zm-3.21,1.08c.6,0,1.08-.49,1.06-1.09-.02-.57-.49-1.03-1.05-1.04-.59-.01-1.09,.48-1.1,1.06,0,.59,.49,1.07,1.09,1.07h0Z"/></g><rect class="cls-1" width="100" height="100"/></g></g></svg>