<?xml version="1.0" encoding="UTF-8"?><svg id="Layer_2" xmlns="http://www.w3.org/2000/svg" viewBox="0 0 100 100"><defs><style>.cls-1{fill:none;}.cls-2{fill:#a91b26;}</style></defs><g id="Layer_1-2"><g><g><path class="cls-2" d="M28.96,24.15c0-1.36-.01-2.64,0-3.92,0-.48,.01-.98,.13-1.44,.39-1.47,1.71-2.4,3.34-2.4,5.39,0,10.77,0,16.16,0s10.82,0,16.23,0c.71,0,1.25,.21,1.75,.72,3.99,4.01,7.98,8,11.99,11.99,.5,.5,.71,1.04,.71,1.74-.01,13.78,0,27.56,0,41.34,0,2.36-1.33,3.69-3.7,3.69-1.48,0-2.95,0-4.5,0-.02,.32-.04,.58-.04,.84,0,1.26,.03,2.53-.03,3.78-.09,1.8-1.48,3.1-3.28,3.15-.17,0-.34,0-.51,0H24.56c-2.55,0-3.84-1.29-3.84-3.85V27.95c0-2.52,1.28-3.8,3.81-3.8h4.44Zm47.51,7.78c-.33,0-.57-.01-.8,0-2.45,.14-4.89,.3-7.34,.43-2.76,.15-4.46-1.47-4.47-4.23,0-2.69,0-5.39,0-8.08v-.87h-30.93c-1.12,0-1.16,.04-1.16,1.13v51.6c0,1.09,.02,1.11,1.09,1.11h42.44c1.12,0,1.16-.04,1.16-1.13V31.93h0Zm-8.27,43.92H32.93c-.36,0-.73,0-1.09-.05-1.34-.17-2.47-1.15-2.76-2.45-.11-.49-.11-1.01-.11-1.52,0-14.6,0-29.21,0-43.81v-1.05h-4.24c-.81,0-1.21,.41-1.21,1.23v51.31c0,1.28,.03,1.31,1.29,1.31h42.15c.22,0,.48,.07,.64-.03,.24-.13,.57-.37,.58-.58,.05-1.42,.03-2.85,.03-4.36h0Zm6.09-46.68c-2.52-2.52-5.09-5.09-7.59-7.59,0,2.22-.01,4.59,0,6.96,0,.66,.47,1.06,1.16,1.02,2.2-.12,4.39-.27,6.42-.39h0Z"/><path class="cls-2" d="M43.21,57.45c-1.05-1.71-1.73-3.4-1.99-5.25-.02-.15-.36-.36-.56-.36-1.02-.04-2.04,0-3.06-.02-1.09-.01-1.75-.58-1.71-1.45,.03-.84,.69-1.36,1.73-1.37,1.18,0,2.37,0,3.34,0,.73-1.95,1.42-3.77,2.11-5.6-.06,0-.26-.03-.47-.04-1.7,0-3.4,0-5.1,0-.98,0-1.61-.57-1.61-1.4,0-.82,.65-1.4,1.62-1.4,2.62,0,5.24,.01,7.86-.02,.38,0,.82-.14,1.13-.35,4.33-3.04,10.08-3.05,14.41-.04,.35,.24,.83,.39,1.26,.39,2.6,.04,5.19,.02,7.79,.02,.19,0,.39,0,.58,0,.81,.06,1.39,.66,1.39,1.4s-.56,1.37-1.39,1.38c-1.82,.03-3.64,.01-5.46,.02h-.69c.7,1.86,1.39,3.69,2.13,5.64,1.17,0,2.52-.02,3.88,0,1.1,.02,1.77,.88,1.46,1.83-.23,.7-.76,.97-1.45,.98-1.19,0-2.38-.02-3.57,.02-.21,0-.57,.24-.59,.41-.28,1.83-.94,3.5-1.96,5.16,.3,.02,.52,.04,.74,.04,1.8,0,3.59,0,5.39,0,.67,0,1.27,.26,1.4,.93,.08,.46-.04,1.1-.33,1.44-.25,.3-.85,.42-1.31,.44-1.58,.05-3.15,.02-4.73,.02-.36,0-.73,.03-1.09,0-1.61-.14-2.96,.3-4.41,1.12-4.59,2.62-9.17,2.27-13.57-.67-.37-.25-.87-.42-1.32-.42-2.35-.04-4.71-.02-7.06-.02-.22,0-.44,0-.65-.01-.87-.08-1.45-.67-1.43-1.44,.03-.77,.64-1.36,1.51-1.37,1.62-.02,3.25,0,4.88,0h.94Zm10.56-16.76c-5.4-.01-9.86,4.42-9.85,9.78,0,5.4,4.44,9.84,9.81,9.83,5.36,0,9.78-4.4,9.81-9.76,.03-5.4-4.38-9.85-9.77-9.86h0Z"/><path class="cls-2" d="M53.85,65.89h16.08c1.3,0,1.97,.47,1.99,1.4,.02,.96-.65,1.43-2.01,1.43H37.89c-1.31,0-1.98-.47-2-1.39-.02-.93,.7-1.44,2.02-1.44h15.93Z"/><path class="cls-2" d="M47.65,34.89c-3.4,0-6.79,0-10.19,0-1.19,0-1.9-1.02-1.41-1.99,.31-.62,.84-.81,1.51-.8,3.03,0,6.06,0,9.1,0,3.69,0,7.37,0,11.06,0,.96,0,1.54,.43,1.64,1.2,.13,.93-.48,1.59-1.51,1.6-3.4,0-6.79,0-10.19,0h0Z"/><path class="cls-2" d="M47.59,26.44c-3.4,0-6.79,0-10.19,0-.62,0-1.17-.22-1.33-.8-.12-.44-.08-1.04,.15-1.41,.19-.31,.76-.56,1.16-.57,6.84-.03,13.68-.03,20.52-.02,.88,0,1.46,.58,1.46,1.38,0,.83-.59,1.4-1.51,1.4-3.42,0-6.84,0-10.26,0h0Z"/><path class="cls-2" d="M52.94,52.15c1.29-1.64,2.5-3.21,3.74-4.76,.23-.29,.54-.58,.88-.71,.56-.21,1.11-.06,1.5,.43,.4,.51,.47,1.12,.08,1.62-1.53,2-3.06,4-4.67,5.93-.7,.84-2,.85-2.83,.12-.82-.71-1.61-1.47-2.37-2.25-.58-.59-.55-1.4,0-1.95,.55-.56,1.32-.58,1.96-.03,.56,.49,1.09,1.02,1.7,1.58h0Z"/></g><rect class="cls-1" width="100" height="100"/></g></g></svg>