<?xml version="1.0" encoding="UTF-8"?><svg id="Layer_2" xmlns="http://www.w3.org/2000/svg" viewBox="0 0 426 426"><defs><style>.cls-1{fill:none;}.cls-2{fill:#a91b26;}</style></defs><g id="Layer_1-2"><g id="Layer_1-2"><g><path class="cls-2" d="M60.98,191.46c.32-.8,.68-1.59,.97-2.4,2.38-6.73,7.02-10.87,14.13-11.82,2.36-.32,3.26-1.27,3.85-3.48,3.44-12.82,8.77-24.85,15.67-36.19,1.97-3.24,4.21-4.05,6.73-2.44,2.39,1.52,2.76,3.89,.91,6.93-6.58,10.84-11.55,22.37-15.01,34.56-.49,1.71-.44,2.84,1.28,3.88,1.31,.79,2.56,1.98,3.33,3.29,1.35,2.31,2.94,2.39,5.37,1.9,16.26-3.32,32.71-4.99,49.3-5.28,1.95-.03,3.08-.6,4.24-2.32,4.15-6.2,10.16-8.89,17.55-7.89,2.11,.29,3.16-.33,4.34-1.92,8.08-10.87,17.22-20.8,27.4-29.74,1.48-1.3,2-2.3,1.37-4.45-.81-2.75-.91-5.79-.8-8.69,.06-1.55-.24-2.28-1.51-3.02-13.71-7.9-28.14-14.1-43.59-18.56-2.68,4.54-6.41,7.89-11.66,9.19-5.24,1.3-10.16,.51-15.28-2.84-3.87,4.03-7.73,8.21-11.79,12.18-1.09,1.07-2.83,2.19-4.18,2.09-1.36-.1-3.22-1.44-3.74-2.69-.5-1.22-.08-3.48,.83-4.49,3.73-4.19,7.73-8.14,11.77-12.04,1.22-1.18,1.56-2.06,1-3.76-2.64-8.06,.06-15.88,6.88-20.53,6.92-4.71,15.15-4.25,21.81,1.37,1.19,1.01,2.01,1.06,3.35,.4,24-11.82,49.39-16.4,75.99-14.25,17.24,1.4,33.74,5.73,49.34,13.28,1.68,.81,2.82,.94,4.45-.32,6.09-4.71,13.71-4.9,20.14-.78,6.56,4.2,9.75,11.64,7.94,19.16-.47,1.93-.29,3.2,1.33,4.29,.57,.38,1.07,.87,1.54,1.38,3.36,3.69,6.54,5.99,12.47,4.51,7.13-1.78,13.02,2.19,16.81,8.42,3.76,6.17,3.71,12.59-.18,18.7-1.13,1.77-1.13,2.91-.13,4.68,15.53,27.7,21.3,57.42,17.61,88.89-4.18,35.69-19.88,65.61-46.09,90.07-1.17,1.09-1.43,1.96-.95,3.55,2.44,8.08-.25,15.72-6.93,20.29-6.7,4.58-14.73,4.28-21.37-.95-1.23-.97-2.07-.94-3.38-.28-24.36,12.31-50.21,17.05-77.33,14.83-18.14-1.48-35.45-6.2-51.71-14.48-1.93-.98-3.18-.91-4.96,.32-6.12,4.23-13.8,4-19.94-.32s-8.99-11.48-7.19-18.63c.47-1.86,.17-2.95-1.28-4.3-27.29-25.57-42.86-56.99-46.57-94.22-.4-4.01-.38-8.07-.67-12.09-.06-.83-.45-2.17-1.01-2.36-6.61-2.3-10.37-7.12-12.43-13.55v-7.1l-.02,.02Zm124.1-.46c-4.73,11.96-10.24,15.25-23.23,14.26-.07,.06-.18,.1-.22,.18-16.05,32.83-22.18,67.48-18.98,103.82,.06,.72,.94,1.82,1.61,1.96,5,1.05,8.75,3.86,11.91,8.17,6.45-2.69,12.96-5.2,19.29-8.08,38.8-17.63,71.51-43.13,98.33-76.23,1.14-1.4,1.13-2.35,.53-4.1-1.15-3.37-1.94-6.97-2.12-10.51-.11-2.07-.46-3.05-2.33-3.96-20.6-10.11-42.13-17.5-64.62-22.06-6.72-1.36-13.52-2.32-20.18-3.45h0Zm106.1,49.82c-2.44-.39-4.43-.34-6.08-1.07-2.29-1.01-3.41-.29-4.85,1.48-31.1,38.31-69.61,66.5-115.63,84.35-3.7,1.44-6.91,2.6-6.34,7.41,.07,.63-.23,1.3-.37,1.95,.47,.29,.78,.53,1.13,.69,40.25,19.15,80.51,19.2,120.84,.21,1.69-.8,1.87-1.72,1.69-3.42-.99-9.53,3.9-16.86,12.97-20.03,.88-.31,1.93-1.64,1.99-2.55,.45-7.08,.67-14.17,.96-21.25,.12-3.02,1.77-4.81,4.43-4.82,2.66,0,4.48,1.79,4.4,4.81-.18,7.19-.24,14.4-.97,21.54-.31,3.06,1.67,3.23,3.18,4.39,1.7,1.3,2.48-.11,3.42-.99,12.7-11.81,22.74-25.58,30.29-41.19,.86-1.78,.78-2.86-.69-4.32-11.32-11.17-23.46-21.34-36.42-30.57-2.45-1.74-4.08-1.89-5.75,.66,.06,.27,.12,.55,.18,.84,1.5,7.32,3.14,14.62,4.46,21.98,.62,3.47-1.67,5.84-4.76,5.44-2.92-.37-3.65-2.52-4.11-5.02-1.28-6.86-2.66-13.7-3.99-20.54l.02,.02Zm-142.97-51.52c.35,.04-.04-.08-.41-.04-16.25,1.8-32.5,3.59-48.73,5.52-.74,.09-1.82,1.4-1.91,2.24-.78,6.82-4.34,11.6-10.57,14.15-2.42,.99-2.87,2.27-2.75,4.6,1.47,28.8,10.91,54.85,27.06,78.57,5.23,7.68,11.28,14.67,18.23,20.8,3.23-1.91,4.71-4.64,4.43-8.19-1.48-18.98-.35-37.8,3.46-56.46,3.37-16.48,8.69-32.29,15.94-47.46,.47-.97,1.02-2.38,.65-3.2-1.54-3.44-3.41-6.74-5.39-10.52h0Zm159.79-79.67c-10.54,6.58-19.11,5.16-26.78-4.1-.44-.53-1.7-.86-2.4-.65-14.1,4.23-27.5,10.11-40.18,17.58-.8,.47-1.29,1.93-1.44,2.99-.38,2.79-.11,5.73-.83,8.41-.58,2.14-.3,3.29,1.34,4.74,19.31,17.12,34.78,37.24,46.36,60.29,1.85,3.68,3.43,6.72,8.21,5.77,.09-.02,.2,0,.29,.05,1.62,.71,2.4-.04,3.23-1.45,10.71-18.24,19.21-37.44,25.45-57.65,.47-1.52,.47-2.41-1.01-3.43-4.09-2.82-6.41-6.87-7.26-11.74-.83-4.76,.35-9.15,2.94-13.39-2.65-2.49-5.22-4.9-7.92-7.43h0Zm39.28,150.37c.12-.3,.38-.93,.61-1.57,4.11-11.47,6.48-23.31,7.26-35.46,1.73-27.12-3.7-52.66-16.96-76.45-.44-.78-1.85-1.9-2.18-1.72-1.91,1.05-5.05-.8-5.96,2.57-.75,2.75-1.66,5.46-2.58,8.16-6.13,18.04-14.01,35.28-23.61,51.74-.53,.9-.89,2.65-.4,3.27,4.1,5.2,5.03,10.97,3.77,16.53,13.54,11.14,26.75,22,40.04,32.93h0Zm-167.18-84.94c1.11,1.76,2.38,3.32,3.12,5.1,.72,1.74,1.82,2.2,3.54,2.46,7.68,1.19,15.38,2.31,22.98,3.89,22.55,4.69,44.1,12.33,64.76,22.52,.91,.45,2.23,.08,3.37,.1-.02-1.12,.34-2.42-.1-3.33-11.4-23.38-26.8-43.76-46.32-60.98-.73-.64-2.38-1.04-3.18-.66-5.84,2.78-11.55,2.76-17.35-.08-.66-.32-1.97-.23-2.5,.23-10.61,9.19-20.04,19.47-28.32,30.75h0Zm98.9-84.63c-16.32-7.98-33.54-12.37-51.66-13.35-23.38-1.27-45.65,3.05-66.72,13.33-.9,.44-1.7,1.67-1.95,2.68-.41,1.71,.96,2.13,2.37,2.69,11.35,4.43,22.7,8.85,33.94,13.55,4.13,1.73,7.94,4.2,11.83,6.29,9.04-7.04,15.8-7.03,25.98,0,1.07-.6,2.19-1.2,3.29-1.83,12.01-6.85,24.55-12.52,37.78-16.51,3.6-1.09,5.65-2.58,5.14-6.84h0ZM88,194.89c.02-5.23-3.96-9.24-9.11-9.17-4.73,.06-8.74,4.14-8.82,8.95-.08,5.02,3.84,9.17,8.74,9.26,5.26,.09,9.17-3.75,9.19-9.03h0Zm79.21,1.96c5.09-.04,8.92-3.9,8.96-9.02,.04-4.88-4.08-9.02-9.01-9.05-4.94-.02-9.1,4.05-9.13,8.94-.03,5.21,3.96,9.17,9.17,9.12h0Zm131.56,25.49c-.05-5.11-3.91-8.96-9-8.97-4.88,0-8.92,4.11-8.92,9.11s4.07,9.15,8.91,9.14c5.19,0,9.06-4,9.01-9.28ZM140.85,86.72c-5.09-.02-8.94,3.78-9.02,8.92-.08,5.05,4.13,9.32,9.11,9.24,4.79-.08,8.81-4.1,8.88-8.89,.08-5.29-3.75-9.25-8.96-9.28h0Zm78.77,32.51c-4.9-.03-9.01,4.07-9.04,9-.03,4.91,4.11,9.16,8.93,9.18,5.14,.02,9.18-4.06,9.13-9.21-.06-5.08-3.94-8.94-9.02-8.97h0Zm79.38,219.64c4.99-.03,8.95-4.05,8.92-9.04-.03-5.17-3.78-8.98-8.9-9.02-5.24-.04-9.09,3.84-9.06,9.14,.02,4.99,4.03,8.94,9.04,8.91h0Zm-2.47-251.85c-4.98-.03-9.06,3.96-9.09,8.9-.04,5.25,3.9,9.24,9.07,9.2,5.09-.04,8.88-3.86,8.95-9.03,.06-4.94-3.98-9.04-8.92-9.07h-.01Zm-164.71,242.15c.05,4.95,4.12,9.01,9.02,9,4.92-.01,8.96-4.09,8.98-9.06,0-5-4.3-9.31-9.21-9.2-4.88,.12-8.84,4.29-8.8,9.25h.01ZM339.69,127.52c-.03-5.03-4.01-9-8.99-8.96-5.14,.04-8.93,3.82-8.96,8.95-.03,5.25,3.86,9.17,9.1,9.15,4.9-.02,8.89-4.14,8.85-9.14h0Z"/><rect class="cls-1" width="426" height="426"/></g></g></g></svg>