<svg id="Layer_2" xmlns="http://www.w3.org/2000/svg" viewBox="0 0 88.32 88.32">
  <defs>
    <style>
      .cls-2{fill:#fff;fill-rule:evenodd}
    </style>
  </defs>
  <g id="Layer_1-2">
    <path class="cls-2" d="M29.59 69.67V35.24H18.15v34.43h11.44Zm-5.72-39.13c3.99 0 6.47-2.64 6.47-5.95-.07-3.38-2.48-5.95-6.4-5.95s-6.47 2.57-6.47 5.95 2.48 5.95 6.32 5.95h.07ZM35.92 69.67h11.44V50.44c0-1.03.07-2.06.38-2.79.83-2.06 2.71-4.19 5.87-4.19 4.14 0 5.8 3.16 5.8 7.79v18.42h11.44V49.93c0-10.58-5.65-15.5-13.18-15.5-6.17 0-8.88 3.45-10.39 5.8h.08v-4.99H35.92c.15 3.23 0 34.43 0 34.43Z"/>
    <path style="fill:none" d="M0 0h88.32v88.32H0z"/>
  </g>
</svg>
