<?xml version="1.0" encoding="UTF-8"?><svg id="Layer_2" xmlns="http://www.w3.org/2000/svg" viewBox="0 0 426 426"><defs><style>.cls-1{fill:none;}.cls-2{fill:#a91b26;}</style></defs><g id="Layer_1-2"><g id="Layer_1-2"><g><g><path class="cls-2" d="M199.34,366.04c-1.47-.57-3-1.04-4.41-1.74-6.65-3.3-10.38-8.63-10.72-16.14-.14-3.2-.02-6.41-.02-10.16h-8.13c-9.3-.03-14.47-5.15-14.51-14.43-.03-6.91-.02-13.81,0-20.73,.02-9.69,5.12-14.81,14.72-14.84h3.98c-.38-8.61-3.24-16.14-7.06-23.5-2.4-4.64-5.3-6.7-10.93-6.49-14.32,.52-28.69,.17-43.04,.18-4.78,0-5.43,.65-5.44,5.35,0,7.43,.07,14.88-.05,22.31-.03,2.12,.58,3.08,2.63,3.9,8.22,3.29,12.69,11.7,11.2,20.5-1.39,8.21-8.89,14.81-17.18,15.15-9.11,.37-16.77-5.17-19.1-13.85-2.42-9,2.18-18.35,10.99-21.89,1.89-.76,2.54-1.61,2.5-3.67-.14-7.64-.06-15.28-.05-22.92,0-9.25,4.81-14.05,14.14-14.07,12.94-.02,25.89,0,38.83,0h3.85c-1.12-1.42-1.86-2.38-2.63-3.31-7.62-9.23-14.94-18.66-18.87-30.22-.73-2.14-.89-5.17-2.4-6.18-1.67-1.12-4.58-.47-6.95-.48-8.85-.03-17.7,.05-26.56-.06-1.98-.02-2.89,.52-3.66,2.45-3.37,8.42-11.97,12.94-20.81,11.18-8.25-1.64-14.52-9.2-14.66-17.69-.15-8.84,5.8-16.4,14.47-18.42,8.66-2.01,17.63,2.68,21.04,11.22,.73,1.82,1.57,2.33,3.43,2.32,10.73-.09,21.47-.04,32.61-.04,0-5.61-.33-11.06,.09-16.45,.41-5.32,1.58-10.58,2.48-16.31h-3.01c-13.28,0-26.55,.02-39.83,0-8.97-.02-13.74-4.82-13.75-13.79,0-8.43,0-16.86,0-25.33-6.62-2.16-11.18-6.25-13.1-12.86-2.75-9.44,2.41-19.22,11.72-22.46,9.19-3.2,19.34,1.49,22.98,10.62,3.62,9.09-.46,19.58-9.51,23.39-2.66,1.12-3.2,2.45-3.15,5.01,.15,7.14,.04,14.3,.06,21.44,0,4.08,.86,4.96,4.8,4.96,14.67,0,29.33-.04,44,.06,2.04,0,2.78-.84,3.75-2.44,3.23-5.33,6.59-10.59,10.21-15.64,2.34-3.26,5.06-3.58,7.3-1.53,2.08,1.89,1.84,4.35-.52,7.33-15.88,20-19.81,42.34-12.48,66.64,2.85,9.46,9.03,17.11,15.06,24.76,5.46,6.91,10.98,13.83,15.87,21.15,2.77,4.13,4.73,8.95,6.33,13.7s2.29,9.81,3.44,14.98h18.71v-65.57c-3.64,0-7.58,.05-11.52-.02-3.08-.05-4.94-1.73-5.04-4.35-.09-2.6,1.62-4.59,4.39-4.61,11.44-.07,22.87-.07,34.31,0,2.66,.02,4.34,1.84,4.4,4.29,.07,2.56-1.67,4.53-4.43,4.62-4.06,.14-8.12,.03-13.11,.03v65.61h19.81c.3-1.56,.57-3.79,.93-6.01,2.25-14.08,9.71-25.48,18.5-36.23,4.84-5.93,9.59-11.96,14.07-18.17,21.57-29.9,11.64-89-40.26-101.93-18.82-4.69-36.9-2.03-53.67,8.13-3.23,1.95-5.78,1.65-7.29-.81-1.51-2.46-.62-4.91,2.56-6.88,36.16-22.46,89.43-12.37,110.42,30.96,.77,1.59,1.65,2.11,3.36,2.1,14.92-.06,29.84-.03,44.75-.04,3.39,0,4.4-1.03,4.41-4.49,.03-7.67-.06-15.35,.06-23.02,.03-2-.56-2.91-2.46-3.66-7.29-2.89-11.92-10.06-11.61-17.52,.33-7.9,5.34-14.59,12.77-17.06,9.28-3.08,19.41,1.77,22.91,10.98,3.54,9.34-.82,19.72-10.1,23.51-2,.82-2.63,1.74-2.6,3.83,.12,7.67,.07,15.35,.04,23.02-.03,8.44-4.92,13.43-13.29,13.45-13.72,.04-27.45,0-41.17,.02-.77,0-1.55,.1-2.58,.17,2.71,10.64,4.05,21.25,2.86,32.44,1.13,.05,2.17,.14,3.2,.14,9.65,0,19.3-.07,28.94,.06,2.22,.03,3.23-.59,4.09-2.71,3.26-8.01,11.65-12.48,20.09-11.01,8.34,1.46,14.82,8.79,15.21,17.22,.4,8.75-5.16,16.41-13.63,18.76-8.98,2.49-18.33-2.12-21.88-11.01-.73-1.82-1.57-2.34-3.43-2.33-10.54,.09-21.08,0-31.63,.1-.94,0-2.54,.69-2.71,1.35-3.66,14.12-12.12,25.38-21.25,36.26-.5,.6-.94,1.25-1.75,2.35,1.38,.07,3.4,.03,3.4,.03h38.49c9.82,0,14.44,4.63,14.45,14.43,0,7.27,.08,14.55-.05,21.82-.04,2.15,.41,3.28,2.62,4.16,8.26,3.29,12.76,11.96,11.03,20.62-1.64,8.21-9.01,14.48-17.3,14.72-8.97,.26-16.56-5.44-18.71-14.04-2.21-8.82,2.4-17.95,11.02-21.4,1.9-.76,2.49-1.66,2.46-3.66-.13-7.67-.03-15.35-.06-23.02-.01-3.54-.9-4.5-4.38-4.51-16.11-.03-32.22-.04-48.33,.06-1.06,0-2.51,.76-3.12,1.63-5.74,8.22-9.4,17.25-10.12,27.86,1.71,0,3.34-.03,4.97,0,7.79,.17,13.28,5.61,13.37,13.44,.09,7.87,.09,15.75,0,23.62s-5.47,13.21-13.38,13.4c-2.96,.07-5.93,.01-9.5,.01,1.42,12.83-.74,23.68-14.81,27.85h-27.38v.04Zm-29.33-57.04h26.82c.7-.39,1.39-.4,2.09-.39,3.49,.07,5.54,1.72,5.56,4.45,.02,2.72-2.11,4.55-5.5,4.57-7.85,.04-23.56-.63-23.56-.63h-5.41v5.26c0,5.87,.88,6.74,6.82,6.74h74.16c1.02,0,2.31,.3,3.01-.19,1.37-.96,3.14-2.23,3.45-3.65,.56-2.52,.15-5.24,.15-8.16h-5.71s-17.89,.67-26.84,.62c-3.18-.02-5.21-1.88-5.21-4.54s1.94-4.44,5.21-4.47c7.16-.05,14.31-.02,21.47,.39h8.49v-6.03c-.02-4.65-1.29-5.97-5.84-5.97h-73.43c-.6,0-1.2-.04-1.79,.04-2.34,.37-3.84,1.65-3.92,4.19-.07,2.43-.02,4.85-.02,7.76h0Zm23.23,29.02c0,3.38-.08,6.45,.02,9.52,.16,5.09,4,9.03,9.14,9.13,7.05,.14,14.1,.12,21.15,0,4.41-.07,8.38-3.16,8.91-7.37,.46-3.67,.1-7.44,.1-11.29h-39.32Zm-109.81-124.15c5.11,.02,9.36-4.1,9.49-9.18,.13-5.15-4.21-9.54-9.43-9.55-5.21,0-9.54,4.32-9.47,9.49,.07,5.07,4.29,9.22,9.41,9.24h0Zm259.18,.15c5.11-.03,9.33-4.2,9.39-9.27,.05-5.16-4.3-9.49-9.51-9.46-5.1,.03-9.33,4.21-9.39,9.29-.06,5.15,4.29,9.47,9.52,9.44h0Zm-3.6-113.41c-5.16,0-9.34,4.07-9.44,9.2-.1,5.21,4.16,9.51,9.42,9.52,5.26,0,9.47-4.24,9.41-9.5-.06-5.11-4.24-9.21-9.39-9.21h0Zm-252.14,18.7c5.29,.02,9.51-4.2,9.45-9.46-.06-5.14-4.2-9.24-9.35-9.25-5.27-.02-9.49,4.21-9.44,9.45,.05,5.12,4.2,9.24,9.34,9.26Zm31.97,187.7c.04-5.25-4.14-9.5-9.36-9.51-5.09-.01-9.28,4.09-9.37,9.19-.1,5.27,4,9.57,9.19,9.65,5.21,.08,9.49-4.11,9.53-9.33h.01Zm207.06,0c0-5.24-4.23-9.46-9.45-9.42-5.11,.04-9.23,4.15-9.28,9.27-.06,5.27,4.08,9.53,9.28,9.57,5.21,.03,9.44-4.19,9.44-9.42h.01Z"/><path class="cls-2" d="M214.79,60c2.34,1.65,2.93,3.97,2.84,6.73-.14,4.17,0,8.35-.05,12.52-.04,3.61-1.87,5.79-4.66,5.71-2.68-.07-4.33-2.14-4.37-5.65-.05-4.17,.1-8.35-.05-12.52-.1-2.75,.5-5.05,2.71-6.79h3.58Z"/><path class="cls-2" d="M280.72,83.07c-.93,1.6-1.41,2.95-2.31,3.9-3.35,3.53-6.8,6.96-10.28,10.36-2.26,2.22-4.99,2.35-6.85,.47-1.84-1.86-1.67-4.59,.54-6.85,3.47-3.55,6.85-7.21,10.59-10.46,1.17-1.01,3.53-1.4,5.07-1.01,1.25,.32,2.1,2.24,3.24,3.59Z"/><path class="cls-2" d="M149.97,78.37c1.58,.85,2.87,1.23,3.74,2.06,3.66,3.5,7.23,7.09,10.76,10.72,2.05,2.11,2.1,4.85,.32,6.65-1.78,1.79-4.55,1.75-6.64-.28-3.62-3.54-7.33-7.02-10.63-10.84-1.02-1.18-1.43-3.52-1.05-5.07,.31-1.25,2.21-2.12,3.5-3.24Z"/></g><rect class="cls-1" width="426" height="426"/></g></g></g></svg>