<?xml version="1.0" encoding="UTF-8"?><svg id="Layer_2" xmlns="http://www.w3.org/2000/svg" viewBox="0 0 426 426"><defs><style>.cls-1{fill:none;}.cls-2{fill:#a91b26;}</style></defs><g id="Layer_1-2"><g id="Layer_1-2"><g><g><path class="cls-2" d="M164.59,202c10.19,5.08,20.94,8.24,32.28,9.39,3.44,.35,6.92,.48,10.38,.54,.79,0,2.08-.51,2.3-1.1,2.82-7.58,6.55-14.91,6.87-23.24,.26-6.64-.94-12.97-3.8-18.56-3.06-.15-5.88,.13-8.49-.48-7.88-1.87-12.34-10-10.05-17.78,2.25-7.68,10.56-12,18.19-9.47,7.6,2.52,11.72,10.97,8.8,18.48-.75,1.93-.7,3.36,.18,5.24,5.76,12.25,6.26,24.8,1.67,37.54-1.1,3.05-2.23,6.08-3.39,9.21,16.22,1.3,31.02-1.67,44.2-11.16,1.6-1.15,2.32-2.08,1.68-4.3-1.8-6.24,1.2-12.75,6.92-15.88,5.6-3.07,12.48-2.06,16.97,2.48,4.57,4.62,5.46,11.66,2.18,17.27-3.19,5.46-9.75,8.33-15.82,6.48-2.42-.74-3.95-.21-5.85,1.2-12.06,8.96-25.68,13.44-40.7,13.65-2.58,.04-5.15,.02-7.73,.03-.19,0-.39,.08-.77,.16,4.77,11.92,10.95,22.43,24.15,26.7,1.59,.51,2.38,.37,3.35-1.11,3.87-5.92,10.51-8.15,16.83-5.89,6.05,2.16,9.95,8.23,9.43,14.66-.52,6.35-5.33,11.61-11.77,12.86-6.27,1.21-12.57-2.22-15.58-8.35-.45-.91-1.4-1.95-2.33-2.2-13.42-3.76-23.02-11.97-28.95-24.54-.53-1.13-1.13-2.24-1.94-3.83-.6,1.33-1.01,2.17-1.38,3.03-4.52,10.45-11.39,18.99-20.89,25.31-1.85,1.23-2.84,2.61-3.36,4.8-1.74,7.32-9.14,11.96-16.29,10.49-7.57-1.56-12.65-8.54-11.58-15.93,1.1-7.54,7.83-12.97,15.36-12.33,4.04,.34,7.31,2.28,10.14,5.41,10.53-7.12,17.19-16.74,20.23-28.75-6.86-.93-13.67-1.2-20.12-2.88-8.57-2.24-16.84-5.6-25.27-8.4-1.09-.36-2.51-.69-3.48-.29-6.9,2.83-13.68,1.33-17.87-4.18-3.92-5.16-3.84-12.27,.19-17.38,4.12-5.21,11.04-6.9,17.13-4.17,6.17,2.77,9.21,9.17,7.87,16.58-.02,.09,.03,.19,.12,.69h0Zm43.41-42.01c2.55,.03,4.71-2.07,4.77-4.63,.06-2.55-2-4.75-4.55-4.85-2.66-.11-4.95,2.11-4.92,4.78,.02,2.56,2.14,4.68,4.7,4.71h0Zm76,33.4c.05-3.08-2.97-5.6-6.21-4.57-1.42,.45-2.56,1.58-3.03,3-1.06,3.22,1.43,6.25,4.5,6.24,2.56,0,4.69-2.12,4.73-4.68h0Zm-128.6,4.65c-.03-2.56-2.16-4.68-4.71-4.69-2.68,0-4.87,2.27-4.76,4.94,.11,2.55,2.31,4.61,4.86,4.54,2.56-.07,4.64-2.24,4.61-4.79Zm109.46,57.08c-.05-2.56-2.2-4.66-4.75-4.65-2.68,.02-4.85,2.31-4.72,4.98,.13,2.55,2.35,4.59,4.9,4.5s4.62-2.28,4.57-4.83Zm-90.17,.12c-2.55-.14-4.82,1.91-4.97,4.47-.15,2.54,1.88,4.82,4.44,4.99,2.41,.16,4.82-1.82,4.99-4.11,.2-2.66-1.93-5.21-4.46-5.35h0Z"/><path class="cls-2" d="M201.29,199.24l-6.73,7.18c-2.55-2.73-4.92-5.38-7.4-7.92-7.34-7.52-15.14-14.62-22.01-22.55-23-26.55-21.7-66.73,2.6-92.09,12.71-13.26,31.95-12.66,43.81,1.37,.25,.3,.43,.66,.27,.41,4.4-3.09,8.24-6.67,12.75-8.79,11.23-5.27,23.79-2.34,32.6,6.87,25.17,26.31,25.66,67.53,.92,94.36-5.83,6.32-12.23,12.12-18.47,18.26-2.04-2.13-4.13-4.3-6.44-6.7,5.15-5.13,10.39-10.38,15.66-15.6,8.07-8,13.75-17.43,16.24-28.53,4.7-20.96-.17-39.53-14.9-55.21-10.76-11.46-28.12-7.17-32.78,7.86-.06,.19-.09,.39-.14,.58-.63,2.48-2.11,4.09-4.76,4.09s-4.01-1.65-4.77-4.09c-3.03-9.73-10.14-15.19-19.34-14.85-5.29,.2-9.69,2.41-13.41,6.18-22.06,22.29-22.43,59.29-.64,82.04,8.09,8.44,16.5,16.58,24.76,24.87,.76,.76,1.49,1.56,2.17,2.27h0Z"/><path class="cls-2" d="M213.88,256.03c3.13-.52,6.03-1,9.31-1.54,.74,4.5,1.37,8.88,2.19,13.21,3.57,18.77,1.25,36.56-9.28,52.77-11.54,17.78-27.85,28.62-48.97,31.13-16.49,1.96-30.27-10.34-31.35-26.97-.03-.48-.12-.96-.2-1.64-5.44,1.49-10.81,1.85-16.21,.46-12.04-3.11-20.2-13.02-21.59-26.21-3.75-35.38,18.85-67.13,53.57-75.06,5.68-1.3,11.49-1.96,17.55-2.97,.52,3.24,1,6.21,1.51,9.36-5.77,.97-11.26,1.73-16.67,2.84-30.8,6.32-51.98,37.68-45.96,67.93,2.74,13.76,18.5,20,29.93,11.84,.48-.35,.96-.71,1.42-1.08,1.98-1.62,4.12-2.03,6.26-.46,2.17,1.59,1.94,3.72,1.46,6.16-.7,3.53-1.69,7.31-1.12,10.74,1.83,11.21,12.05,17.61,23.47,15.29,32.51-6.61,53.04-36.8,47.3-69.5-.94-5.34-1.72-10.72-2.6-16.29h-.02Z"/><path class="cls-2" d="M289.43,323.04c-.72,11.9-5.88,20.7-16.41,26-6.49,3.26-13.34,3.41-20.3,1.89-11.85-2.59-22.37-7.83-31.48-15.88-.8-.71-1.68-1.35-2.49-2,2.52-2.37,4.67-4.39,6.74-6.33,4.28,2.89,8.84,6.34,13.74,9.19,6.13,3.56,12.85,5.73,19.96,6.29,13.64,1.07,23.72-11.77,19.62-24.84-.18-.57-.37-1.13-.57-1.69-.86-2.37-.7-4.57,1.5-6.11,2.17-1.53,4.28-1.03,6.26,.58,5.87,4.75,12.45,6.06,19.5,3.3,7.44-2.91,11.24-8.76,12.22-16.56,4.01-31.87-18.04-61.19-49.73-66.13-2.73-.43-5.44-.92-8.57-1.44,.48-3.07,.94-6.03,1.44-9.23,10.17,1.13,19.85,3.18,28.9,7.75,26.49,13.35,41.8,42.83,37.14,71.62-2.88,17.75-18.61,28.13-36.08,23.8-.38-.09-.77-.12-1.38-.22h0Z"/><path class="cls-2" d="M324.08,246.8c-1.37-2.63-2.73-5.24-4.22-8.09,1-.62,1.89-1.18,2.8-1.72,9.5-5.67,16.91-13.34,22.09-23.12,7.37-13.9-1.8-28.97-17.54-28.8-2.83,.03-5.2-.42-6.08-3.48-.85-2.95,1.01-4.52,3.16-6.03,12.44-8.72,11.28-26.33-2.25-33.21-10.81-5.5-22.3-7.29-34.32-5.73-.87,.11-1.76,.17-2.95,.29-.56-3.06-1.1-6.01-1.68-9.18,9.32-1.7,18.31-1.76,27.12,.46,5.52,1.39,11.06,3.23,16.14,5.77,15.71,7.83,20.68,26.31,11.46,41.23-.25,.41-.49,.83-.86,1.46,.97,.43,1.84,.83,2.72,1.22,14.37,6.26,21.27,22.94,14.97,37.23-6.12,13.89-16.28,24.2-29.59,31.43-.24,.13-.54,.16-1,.29l.03-.02Z"/><path class="cls-2" d="M105.06,239c-1.35,2.61-2.71,5.22-4.17,8.03-9.78-5.01-17.71-11.87-24-20.61-3.95-5.49-7.5-11.21-8.44-18.13-1.8-13.25,5.17-25.43,17.52-30.62,.62-.26,1.24-.54,2.12-.92-3.03-4.74-5.18-9.65-5.38-15.23-.44-12.15,4.6-21.36,15.23-27.17,11.62-6.35,24.2-8.47,37.35-7.53,.47,.03,.92,.23,1.56,.4-.34,3.02-.66,5.94-.97,8.72-5.37,.32-10.62,0-15.57,1.08-6.22,1.36-12.57,3.13-18.19,6.04-12.54,6.48-13.48,23.53-2.17,31.97,2.32,1.73,5.06,3.19,3.89,6.81-1.17,3.61-4.21,3.25-7.13,3.26-14.12,.07-23.26,14.61-17.09,27.44,4.98,10.36,12.65,18.38,22.49,24.32,.85,.51,1.69,1.03,2.53,1.55,.08,.05,.12,.15,.43,.59h-.01Z"/></g><rect class="cls-1" width="426" height="426"/></g></g></g></svg>