<svg id="Layer_2" xmlns="http://www.w3.org/2000/svg" viewBox="0 0 88.32 88.32">
  <defs>
    <style>
      .cls-3{fill:#fff}
    </style>
    <mask id="mask" x="18.51" y="18.73" width="51.29" height="51.03" maskUnits="userSpaceOnUse">
      <path class="cls-3" d="M69.8 18.73H18.77v51.03H69.8V18.73Z" id="mask0_4_136-2"/>
    </mask>
  </defs>
  <g id="Layer_1-2">
    <path class="cls-3" d="M69.8 28.31c-1.56 2.08-3.11 4.15-5.44 5.44v1.82c0 16.32-13.47 29.27-29.79 29.27-5.6 0-11.19-1.5-15.8-4.5v-.11c.91.2 1.62.2 2.33.2 4.66 0 9.33-1.55 12.95-4.4-4.66 0-8.55-3.11-9.84-7.25.78.26 1.29.26 2.07.26 1.04 0 2.07 0 2.85-.26-4.66-1.04-8.29-5.44-8.29-10.36v-.26c1.3.77 3.11 1.29 4.66 1.29-4.66-3.11-5.95-9.32-3.1-13.99 5.18 6.48 12.95 10.37 21.5 10.62-.26-.77-.26-1.55-.26-2.33 0-2.85 1.29-5.44 3.36-7.51 4.15-3.88 10.88-3.62 14.77.52 2.33-.52 4.66-1.3 6.73-2.59-.77 2.33-2.59 4.4-4.66 5.7 2.07-.26 4.15-.78 5.96-1.56Z" id="mask0_4_136"/>
    <path class="cls-3" d="M69.8 28.31c-1.56 2.08-3.11 4.15-5.44 5.44v1.82c0 16.32-13.47 29.27-29.79 29.27-5.6 0-11.19-1.5-15.8-4.5-.09-.05-.17-.1-.26-.16.09.02.18.04.26.05.91.2 1.62.2 2.33.2 4.66 0 9.33-1.55 12.95-4.4-4.66 0-8.55-3.11-9.84-7.25.78.26 1.29.26 2.07.26 1.04 0 2.07 0 2.85-.26-4.66-1.04-8.29-5.44-8.29-10.36v-.26c1.3.77 3.11 1.29 4.66 1.29-4.66-3.11-5.95-9.32-3.1-13.99 5.18 6.48 12.95 10.37 21.5 10.62-.26-.77-.26-1.55-.26-2.33 0-2.85 1.29-5.44 3.36-7.51 4.15-3.88 10.88-3.62 14.77.52 2.33-.52 4.66-1.3 6.73-2.59-.77 2.33-2.59 4.4-4.66 5.7 2.07-.26 4.15-.78 5.96-1.56Z" style="mask:url(#mask)"/>
    <path style="fill:none" d="M0 0h88.32v88.32H0z"/>
  </g>
</svg>
