<svg class="c-sns-line" xmlns="http://www.w3.org/2000/svg" viewBox="0 0 36 36">
  <rect class="c-sns-icon-fill" x=".5" y=".5" width="35" height="35" rx=".05" ry=".05" style="fill:none;stroke:#1e1d1d"/>
  <path d="M18.3 6.96c6.25 0 11.33 4.12 11.33 9.19 0 2.03-.79 3.86-2.43 5.66-2.38 2.74-7.69 6.07-8.9 6.58-1.18.5-1.04-.28-.99-.58v-.03l.17-.97c.04-.29.08-.74-.04-1.02-.13-.32-.63-.48-1-.56-5.45-.72-9.48-4.53-9.48-9.07 0-5.07 5.09-9.19 11.33-9.19Zm-4.21 10.89h-2.18v-3.91s0-.05-.01-.08a.226.226 0 0 0-.21-.15h-.79s-.06 0-.08.02c-.03.01-.05.03-.07.05a.18.18 0 0 0-.05.07.31.31 0 0 0-.02.08v4.94c0 .06.02.11.06.15s.1.06.15.06h3.18c.12 0 .22-.1.22-.22v-.8s0-.06-.02-.08c-.01-.03-.03-.05-.05-.07a.18.18 0 0 0-.07-.05.31.31 0 0 0-.08-.02Zm1.12-4.13c-.09 0-.17.05-.21.15 0 .02-.01.05-.01.08v4.93c0 .12.1.22.22.22h.8c.12 0 .22-.1.22-.22v-4.93s0-.05-.01-.08a.226.226 0 0 0-.21-.15h-.8Zm5.47 0c-.06 0-.11.02-.16.06-.04.04-.06.1-.06.16v2.95l-2.26-3.07-.02-.02v-.02h-.02l-.02-.02h-.02v-.02h-.05l-.01-.04v.02h-.03v-.02.02h-.82c-.06 0-.11.02-.16.06-.04.04-.07.16-.07.16v4.94s.11.22.23.2H18c.12.02.22-.08.21-.2v-2.93l2.27 3.06s.03.04.06.05h.02v.02h.03s0 .01.01.02.06-.02.06-.02h.8c.12 0 .22-.1.22-.22v-4.91c0-.06-.02-.11-.06-.16a.227.227 0 0 0-.16-.06h-.8Zm5.41 1v-.78s0-.06-.02-.08c-.01-.03-.03-.05-.05-.07a.18.18 0 0 0-.07-.05.31.31 0 0 0-.08-.02h-3.18c-.06 0-.11.02-.15.06s-.06.1-.06.16v4.93c0 .06.02.11.06.15s.1.07.15.07h3.17c.12 0 .22-.1.22-.22v-.79s0-.06-.02-.08c-.01-.03-.03-.05-.05-.07a.18.18 0 0 0-.07-.05.31.31 0 0 0-.08-.02H23.7v-.84h2.16c.12 0 .22-.1.22-.22V16s0-.06-.02-.08c-.01-.03-.03-.05-.05-.07s-.04-.04-.07-.05a.31.31 0 0 0-.08-.02H23.7v-.84h2.16c.12 0 .22-.1.22-.22Z" style="fill:#1e1d1d"/>
</svg>