<?xml version="1.0" encoding="UTF-8"?><svg id="Layer_2" xmlns="http://www.w3.org/2000/svg" viewBox="0 0 426 426"><defs><style>.cls-1{fill:none;}.cls-2{fill:#a91b26;}</style></defs><g id="Layer_1-2"><g id="Layer_1-2"><g><g><path class="cls-2" d="M66.01,78.96c24.43,3.7,48.98,6.33,73.65,7.48,24.57,1.15,49.17,2.19,73.76,2.2,24.69,.02,49.4-.72,74.05-2.17,24.51-1.44,48.94-4.19,73.62-6.38-1.38,5.72-2.86,11.83-4.32,17.95-1.03,4.3-2.17,8.58-3.02,12.93-.45,2.33-1.64,3.04-3.84,3.28-7.82,.85-15.62,1.89-23.81,2.9,.78,7.8,1.55,15.52,2.36,23.6-5.48,.54-10.88,1.08-16.45,1.63v22.62h27.24c-1.27,14.81-2.5,29.25-3.77,44h-23.47v55h-9v-120.42l-27,1.43v141.99h27v-13h9v64h40v9H77v-9h40V209h-23.5c-1.28-14.79-2.53-29.24-3.8-44h27.31v-22.86c-5.38-.52-10.65-1.02-16.37-1.58,.78-7.94,1.55-15.75,2.34-23.87-2.18-.28-4.24-.58-6.31-.8-5.96-.66-11.9-1.38-17.87-1.9-2.18-.19-3.07-1.1-3.64-3.2-2.58-9.48-5.35-18.9-8.08-28.34-.26-.89-.71-1.73-1.08-2.59v-.9h0Zm95.99,130.03v129h104V209h-104Zm-50.33-91c-.5,5.15-.98,9.96-1.5,15.08,69.59,5.48,138.82,5.42,208.31,.03-.54-5.05-1.04-9.75-1.56-14.66-46.55,4.58-92.78,4.07-138.92,3.27v-8.72h2.89c17.29-.07,34.59,.31,51.88,.17,16.71-.13,33.45-.28,50.12-1.34,19.35-1.22,38.63-3.44,57.94-5.23,4.73-.44,4.74-.46,5.84-5.11,.84-3.57,1.66-7.15,2.52-10.82-90.47,10.23-180.48,10.2-270.74-.17,1.22,4.23,2.58,8.04,3.36,11.97,.57,2.9,1.96,3.87,4.76,4.06,26.53,1.86,53.06,3.81,79.59,5.74,.82,.06,1.64,.15,1.84,.21v9.02c-18.61-1.1-37.35-2.18-56.32-3.5h0Zm14.33,25.34v143.66h15v9h-15v10h27V144.79c-9.1-.49-17.94-.97-27-1.46h0Zm35.99,56.67h104.01v-26h-43v-28h-18v29h-43v24.99h0Zm34.01-34.99v-19h-34v19h34Zm71,0v-20.02c-1.21,0-2.25-.02-3.29,0-7.49,.2-14.98,.37-22.47,.63-2.75,.09-6.37-.57-7.96,.89-1.38,1.27-.51,5.05-.54,7.72-.05,3.6,0,7.19,0,10.78h34.27Zm-114,151h-27v22h27v-22Zm123,22h27v-22h-27v22Zm51.08-138c.72-8.46,1.42-16.63,2.14-25h-17.23v25h15.08Zm-210.09-25h-17.18c.74,8.5,1.46,16.75,2.19,25h15.01v-25h0Zm186.01,121h-27v10h27v-10Z"/><path class="cls-2" d="M236,192h-9v-9h9v9Z"/><path class="cls-2" d="M200,192h-9v-9h9v9Z"/><path class="cls-2" d="M218,192h-9v-9h9v9h0Z"/></g><rect class="cls-1" width="426" height="426"/></g></g></g></svg>