<svg class="c-sns-tw" xmlns="http://www.w3.org/2000/svg" viewBox="0 0 36 36">
  <rect class="c-sns-icon-fill" x=".5" y=".5" width="35" height="35" rx=".05" ry=".05" style="fill:none;stroke:#1e1d1d"/>
  <path d="M27.47 12.12c-.67.32-1.4.54-2.16.64.79-.51 1.37-1.31 1.66-2.26-.74.48-1.55.81-2.39.99a3.704 3.704 0 0 0-2.14-1.24c-.82-.15-1.66 0-2.39.43-.73.42-1.31 1.1-1.65 1.92-.34.82-.42 1.74-.23 2.62-1.5-.08-2.96-.5-4.3-1.24-1.34-.74-2.52-1.77-3.46-3.03a4.413 4.413 0 0 0-.07 3.98c.29.59.71 1.1 1.23 1.47-.6-.02-1.18-.2-1.71-.51v.05c0 .94.3 1.86.85 2.59.55.73 1.32 1.23 2.17 1.42-.55.16-1.14.19-1.7.07.24.81.71 1.52 1.34 2.03.63.51 1.39.79 2.18.81a7.174 7.174 0 0 1-4.68 1.75c-.3 0-.6-.02-.9-.06 1.72 1.2 3.72 1.84 5.77 1.84 6.93 0 10.71-6.23 10.71-11.63 0-.18 0-.35-.01-.53.74-.58 1.37-1.29 1.88-2.11Z" style="fill:#1e1d1d"/>
</svg>