<svg class="c-sns-in" xmlns="http://www.w3.org/2000/svg" viewBox="0 0 36 36">
  <rect class="c-sns-icon-fill" x=".5" y=".5" width="35" height="35" rx=".05" ry=".05" style="fill:none;stroke:#1e1d1d"/>
  <path d="M15.24 15.2h3.61v1.9c.52-1.09 1.85-2.07 3.86-2.07 3.84 0 4.75 2.17 4.75 6.15v7.38h-3.89v-6.47c0-2.27-.52-3.55-1.84-3.55-1.83 0-2.59 1.38-2.59 3.55v6.47h-3.89V15.2ZM8.59 28.38h3.89V15.03H8.59v13.36Zm4.44-17.71c0 .34-.06.68-.19 1-.13.32-.31.6-.54.85-.47.49-1.11.77-1.77.77-.66 0-1.3-.28-1.77-.77a2.679 2.679 0 0 1-.73-1.85c0-.69.26-1.36.73-1.85s1.1-.77 1.77-.77c.66 0 1.3.28 1.77.77s.73 1.15.73 1.85Z" style="fill:#1e1d1d;fill-rule:evenodd"/>
</svg>