<?xml version="1.0" encoding="UTF-8"?><svg id="Layer_2" xmlns="http://www.w3.org/2000/svg" viewBox="0 0 426 426"><defs><style>.cls-1{fill:none;}.cls-2{fill:#a91b26;}</style></defs><g id="Layer_1-2"><g id="Layer_1-2"><g><g><path class="cls-2" d="M68.3,60.99c.96,.83,1.98,1.6,2.88,2.5,11.58,11.55,23.14,23.11,34.7,34.68,.56,.56,1.15,1.1,1.6,1.73,1.39,1.95,1.3,3.95-.34,5.65-1.74,1.8-3.82,1.93-5.86,.44-.87-.63-1.59-1.47-2.36-2.23-11.36-11.35-22.71-22.71-34.06-34.07-3.44-3.44-3.31-5.63,.47-8.69h2.97Z"/><path class="cls-2" d="M359.96,61.01c3.76,3.06,3.9,5.27,.47,8.7-11.63,11.64-23.26,23.27-34.9,34.9-.62,.62-1.25,1.29-2.01,1.72-1.95,1.12-3.85,.84-5.38-.77-1.54-1.61-1.72-3.52-.5-5.41,.53-.81,1.3-1.47,1.99-2.17,11.35-11.36,22.7-22.72,34.07-34.06,1.04-1.03,2.19-1.95,3.29-2.92h2.97Z"/><path class="cls-2" d="M65.34,363.99c-3.77-3.06-3.9-5.26-.47-8.69,11.56-11.57,23.12-23.13,34.69-34.7,.63-.63,1.23-1.31,1.96-1.78,2-1.29,3.98-1.09,5.63,.61,1.55,1.6,1.72,3.52,.5,5.41-.53,.81-1.29,1.48-1.98,2.18-11.42,11.43-22.84,22.86-34.28,34.27-.97,.96-2.05,1.81-3.08,2.71h-2.97Z"/><path class="cls-2" d="M357,364.01c-1.03-.9-2.12-1.74-3.08-2.71-11.51-11.48-23-22.98-34.49-34.48-.49-.49-1-.96-1.43-1.49-1.57-1.99-1.53-4,.14-5.89,1.6-1.81,4.08-1.89,6.1-.26,.84,.68,1.57,1.49,2.33,2.26,11.29,11.28,22.58,22.56,33.86,33.85,3.43,3.43,3.29,5.64-.47,8.71h-2.96Z"/><path class="cls-2" d="M127.46,61c1.11,1.54,2.69,2.93,3.23,4.64,1.73,5.43,3.1,10.98,4.54,16.5,.82,3.13-.37,5.47-2.95,6.08-2.68,.63-4.66-.7-5.57-3.88-1.54-5.39-2.89-10.84-4.53-16.2-.94-3.06-.31-5.36,2.31-7.14h2.97Z"/><path class="cls-2" d="M300.8,61c2.62,1.78,3.25,4.09,2.31,7.15-1.64,5.36-2.99,10.81-4.53,16.2-.94,3.28-3.14,4.66-5.86,3.81-2.38-.74-3.44-3.01-2.65-6.02,1.45-5.52,2.81-11.07,4.54-16.5,.54-1.72,2.13-3.1,3.23-4.64h2.96Z"/><path class="cls-2" d="M124.5,364.01c-2.79-1.86-3.2-4.31-2.24-7.43,1.63-5.26,2.94-10.62,4.45-15.92,.91-3.18,2.9-4.51,5.57-3.88,2.58,.61,3.76,2.95,2.94,6.08-1.44,5.52-2.81,11.07-4.54,16.5-.55,1.72-2.13,3.1-3.23,4.64h-2.95Z"/><path class="cls-2" d="M298,363.99c-1.11-1.54-2.68-2.92-3.23-4.64-1.71-5.34-3.05-10.79-4.48-16.21-.89-3.37,.21-5.74,2.87-6.37,2.74-.65,4.72,.75,5.68,4.15,1.47,5.21,2.76,10.47,4.36,15.64,.96,3.12,.54,5.57-2.24,7.44h-2.96Z"/><path class="cls-2" d="M323.19,165c-.5,2.7-.85,5.44-1.53,8.09-1.89,7.43-.2,13.8,5.19,19.25,11.94,12.07,11.97,28.53,.07,40.52-5.49,5.54-7.18,11.98-5.19,19.51,4.28,16.17-4.11,30.64-20.16,34.89-7.4,1.96-12.15,6.6-14.22,13.98-4.7,16.72-18.52,24.73-35.22,20.42-7.42-1.92-13.78-.17-19.23,5.23-12.04,11.92-28.44,11.91-40.52-.02-5.46-5.39-11.82-7.13-19.24-5.2-16.5,4.29-30.63-3.82-35.11-20.18-2.02-7.38-6.67-12.09-14.04-14.18-16.74-4.75-24.62-18.44-20.33-35.26,1.86-7.3,.19-13.61-5.1-19-12.09-12.32-12.13-28.47-.07-40.74,5.38-5.48,7.06-11.86,5.13-19.26-4.26-16.34,3.82-30.53,19.99-34.97,7.62-2.09,12.41-6.83,14.47-14.46,4.33-15.99,18.73-24.36,34.67-20.1,7.65,2.04,14.14,.34,19.77-5.23,11.89-11.78,28.46-11.76,40.31,.03,5.53,5.5,11.96,7.23,19.49,5.26,16.29-4.25,30.53,3.94,34.93,20.08,2.11,7.75,7,12.5,14.8,14.48,12.51,3.18,20.95,14.11,21.15,26.86h0Zm-9.11,.75c-.02-9.85-5.67-16.83-14.84-19.32-10.71-2.91-17.54-9.68-20.45-20.41-3.14-11.55-12.65-17.05-24.29-14-10.76,2.83-20.03,.26-27.91-7.53-8.44-8.33-19.44-8.36-27.8-.06-7.96,7.91-17.32,10.41-28.18,7.55-11.31-2.98-20.89,2.46-23.95,13.67-2.98,10.94-9.82,17.86-20.79,20.84-11.25,3.06-16.75,12.62-13.77,23.89,2.9,10.98,.31,20.39-7.68,28.43-8.1,8.14-8.13,19.25-.06,27.36,8.1,8.13,10.64,17.62,7.7,28.7-2.91,10.95,2.57,20.61,13.45,23.55,11.18,3.02,18.18,9.98,21.22,21.17,2.97,10.93,12.57,16.44,23.5,13.55,11.07-2.93,20.57-.44,28.72,7.63,8.27,8.18,19.29,8.07,27.58-.15,7.96-7.9,17.32-10.41,28.18-7.55,11.41,3.01,20.95-2.55,24.05-13.97,2.91-10.72,9.68-17.53,20.41-20.45,11.55-3.14,17.05-12.68,13.99-24.3-2.83-10.76-.2-19.96,7.49-27.95,2-2.08,3.9-4.58,4.91-7.24,3-7.9,.95-14.8-5-20.75-7.67-7.66-10.16-16.82-7.51-27.37,.53-2.09,.82-4.24,1.02-5.3h.01Z"/><path class="cls-2" d="M89.74,297c-.67,.65-1.73,2.46-3.21,2.93-5.99,1.91-12.09,3.47-18.19,5.01-2.92,.74-5.14-.61-5.78-3.11-.61-2.38,.82-4.6,3.73-5.43,5.86-1.67,11.74-3.29,17.63-4.83,3.29-.85,5.93,1.19,5.81,5.43h.01Z"/><path class="cls-2" d="M67,119.99c1.39,.37,3.19,.86,4.99,1.34,4.55,1.23,9.13,2.4,13.66,3.71,2.9,.84,4.16,2.99,3.51,5.56-.62,2.45-2.98,3.73-5.83,2.98-5.98-1.59-11.95-3.23-17.91-4.93-2.52-.72-3.83-2.51-3.32-5.12,.44-2.3,2.08-3.47,4.9-3.53h0Z"/><path class="cls-2" d="M362.9,299.74c-.12,3.68-2.4,5.83-5.05,5.2-6.59-1.57-13.13-3.37-19.62-5.31-2.42-.73-3.19-2.92-2.48-5.29,.72-2.41,2.64-3.59,5.04-2.99,6.38,1.6,12.76,3.29,19.02,5.31,1.45,.47,2.43,2.39,3.1,3.09h-.01Z"/><path class="cls-2" d="M340.56,133.93c-2.83-.25-4.41-1.25-4.9-3.46-.5-2.3,.26-4.34,2.54-5.02,6.49-1.94,13.04-3.72,19.62-5.34,2.28-.56,4.03,.72,4.79,2.97,.73,2.17,0,4.33-1.99,4.98-6.81,2.22-13.74,4.05-20.06,5.87h0Z"/><path class="cls-2" d="M309.69,206.66c-.04,55.94-38.38,97.98-88.03,102.44-52.29,4.7-98.45-32.29-105.31-84.4-6.86-52.09,30.03-100.68,82.09-108.13,.98-.14,1.94-.37,2.92-.43,2.77-.17,4.76,1.39,5.04,3.87,.28,2.47-1.32,4.4-4.03,4.94-4.82,.97-9.78,1.52-14.43,3.02-34.62,11.17-56.11,34.61-62.11,70.47-7.28,43.55,17.77,83.81,59.34,97.86,50.86,17.19,106.44-16.74,114.51-69.91,7.27-47.87-23.61-91.53-71.17-100.63-1.64-.31-3.31-.51-4.97-.75-3.35-.48-5.23-2.49-4.8-5.14,.44-2.73,2.68-4.1,6.07-3.66,11.43,1.5,22.42,4.59,32.53,10.14,33.97,18.66,50.86,47.8,52.34,80.29v.02Z"/><path class="cls-2" d="M198.66,210.68c.68-.64,1.46-1.35,2.22-2.1,13.81-13.8,27.6-27.6,41.41-41.4,7.18-7.18,14.76-7.2,21.94-.06,3.36,3.33,6.74,6.64,10.02,10.06,5.71,5.97,5.73,13.96-.08,19.82-11.72,11.84-23.54,23.58-35.33,35.35-2.51,2.5-4.99,2.77-6.98,.87-2.1-2.01-1.85-4.54,.79-7.19,11.35-11.37,22.72-22.73,34.08-34.09,3.87-3.87,3.89-5.85,.09-9.67-2.92-2.94-5.85-5.86-8.78-8.78-3.66-3.64-5.85-3.66-9.45-.06-15.2,15.19-30.39,30.39-45.59,45.58-3.64,3.64-5.44,3.63-9.12-.04-5.51-5.5-11-11.02-16.53-16.51-3.28-3.26-5.5-3.24-8.81,.05-3.64,3.61-7.28,7.22-10.87,10.88-2.6,2.66-2.66,5.14-.08,7.74,10.42,10.49,20.84,20.99,31.38,31.35,4.93,4.85,12.26,4.71,17.31-.11,3.49-3.33,6.83-6.83,10.28-10.22,2.29-2.25,4.91-2.51,6.79-.74,1.98,1.86,1.8,4.6-.56,7-3.38,3.45-6.77,6.89-10.25,10.24-8.62,8.29-21.21,8.45-29.79,.1-10.74-10.45-21.29-21.09-31.81-31.76-5.56-5.64-5.49-13.69-.02-19.38,4.03-4.19,8.15-8.3,12.33-12.34,5.77-5.57,13.82-5.49,19.6,.15,5.15,5.02,10.23,10.12,15.34,15.18,.06,.05,.18,.04,.49,.09h-.02Z"/></g><rect class="cls-1" width="426" height="426"/></g></g></g></svg>