<?xml version="1.0" encoding="UTF-8"?><svg id="Layer_2" xmlns="http://www.w3.org/2000/svg" viewBox="0 0 427 427"><defs><style>.cls-1{fill:none;}.cls-2{fill:#a91b26;}</style></defs><g id="Layer_1-2"><g id="Layer_1-2"><g><rect class="cls-1" width="427" height="427"/><g><path class="cls-2" d="M66.98,184.15c.21-.4,.47-.8,.62-1.22,2.54-7.6,8.4-11.9,16.49-11.92,14.51-.04,29.01-.01,43.53-.01h3.49c0-2.79,.12-5.36-.08-7.89-.05-.68-1-1.52-1.74-1.87-3.03-1.44-6.16-2.67-9.21-4.08-8.87-4.11-13.48-13.21-11.46-22.53,1.96-9.06,10.02-15.58,19.6-15.61,19.31-.07,38.62-.02,57.94-.02h1.81c.55-1.73,.89-3.31,1.53-4.75,2.96-6.57,8.19-9.95,15.39-10.42,1.23-.08,2.48-.06,3.72,0,4.18,.17,7.74-.27,11.44-3.24,6.76-5.45,17-2.91,21.6,4.5,.49,.79,.91,1.64,1.49,2.69,3.72-1.49,7.34-3.08,11.09-4.37,2.12-.73,4.42-1.32,6.64-1.34,16.21-.11,32.42-.06,48.63-.06h.86c2.73,.13,4.51,1.7,4.61,4.04,.1,2.47-1.7,4.35-4.53,4.41-4.58,.1-9.16,.03-13.74,.03-9.82,0-19.65,.19-29.47-.07-5.47-.15-10.57,.62-15.47,3.02-2.45,1.21-5.97,1.56-7.28,3.46-1.3,1.9-.5,5.25-.53,7.97-.04,5.03,.11,4.79,4.73,7,6.94,3.33,14.12,4.36,21.81,4.25,22.4-.31,44.81-.08,67.23-.12,9.14-.02,15.33-8.2,12.69-16.58-1.62-5.16-6.45-8.77-11.99-8.9-2.96-.07-5.91,.03-8.87-.04-3.03-.07-4.94-1.87-4.84-4.42,.1-2.42,1.96-4.07,4.89-4.03,4.28,.06,8.65-.21,12.81,.54,10.71,1.9,18.01,11.8,17.11,22.47-.91,10.75-10,19.38-20.95,19.42-26.13,.11-52.26,.07-78.39-.02-2.03,0-4.13-.66-6.07-1.35-3.67-1.3-7.24-2.85-11.42-4.52-.4,1.88-1.03,3.56-1.05,5.23-.1,8.31-.1,16.6,.02,24.91,.01,.94,.77,2.33,1.58,2.73,6.45,3.22,9.62,8.39,9.68,15.44,.07,7.07,.01,14.15,.01,21.64,4.41,0,8.74-.51,12.9,.12,6.51,.97,10.83-2.33,15.06-6.23,.64-.59,.98-1.56,1.32-2.41,1.94-4.95,6.01-7.85,11.34-8.03,.38,0,.76-.03,1.14,0,4.95,.3,8.92,.2,11.97-5.42,3.48-6.41,10.65-7.72,17.82-7,2.17,.22,3.43,1.64,3.59,3.77,.16,2.27-.97,3.84-3.23,4.35-1.19,.27-2.45,.21-3.69,.26-6.15,.23-10.14,4.16-10.18,10.26-.06,7.83-.02,15.66-.02,23.49v58.32c0,7.66,3.83,11.51,11.56,11.54,9.34,.04,18.67,0,28.46,0,0-4.28-.23-8.4,.07-12.48,.3-4.12-.33-7.56-4.2-9.9-.83-.51-1.45-1.51-1.95-2.4-2.8-5-1.23-15.98,2.81-20.12,1.74-1.79,3.54-3.31,3.42-6.39-.12-3.04-.74-5.41-3.19-7.35-3.32-2.62-4.51-6.18-4.25-10.3,.11-1.7,.03-3.4,.02-5.1-.01-3.58,1.51-6.43,4.41-8.46,2.34-1.64,3.08-3.67,2.95-6.46-.23-4.78-.06-9.58-.06-14.67-2.83,0-5.38,.04-7.93,0-3.28-.07-5.27-1.79-5.19-4.39,.08-2.49,1.97-4.02,5.16-4.07,2.77-.04,5.53-.09,8.3,.04,4.71,.22,8.12,3.53,8.2,8.14,.12,6.32,.04,12.65,.03,18.96,0,3.34-2.01,5.53-4.38,7.58-4.05,3.53-4.5,10.01-.4,13.43,6.07,5.08,5.38,11.56,4.23,17.94-.43,2.38-2.9,4.51-4.71,6.51-3.07,3.41-3.07,9.93,.47,12.72,3.6,2.83,5.12,6.26,4.87,10.82-.28,5.09-.04,10.19-.07,15.29-.04,5.6-3.39,9.02-9.07,9.07-9.82,.08-19.65,.12-29.47,0-7.74-.1-13.46-3.72-16.85-10.63-.7-1.42-1.45-1.95-3.01-1.89-2.77,.09-5.54,.11-8.29-.09-5.16-.37-8.36-3.26-10.72-7.75-1.24-2.35-3.68-4.08-5.58-6.09-2.12-2.25-4.64-2.72-7.72-2.37-5.18,.58-10.41,.66-15.92,.97v19.39c0,10.86-3.93,16.04-14.76,19.04,0,1.36,.02,2.85,0,4.34-.17,9.05-6.28,15.31-15.32,15.32-41.97,.06-83.95,.06-125.92,0-9.07-.01-15.11-6.29-15.19-15.36,0-1.05,.1-2.11-.05-3.14-.08-.54-.53-1.4-.93-1.47-7.42-1.27-11.43-6.16-13.83-12.82v-22.76c1.48-1.83,3.03-3.49,5.73-2.45,2.63,1.02,2.86,3.23,2.83,5.65-.05,4.69-.02,9.4-.02,14.09,0,5.58,4.52,10.1,10.1,10.1H233.99c9.02,0,11.04-4.17,9.57-16l-.05-90.82c1.59-11.9-.43-16.18-9.31-16.18H85.25c-6.96,0-9.71,2.73-9.71,9.65,0,22.53-.02,45.07,.02,67.6,0,2.47-.35,4.7-2.94,5.59-2.61,.89-4.32-.59-5.62-2.71v-74.98h-.02Zm119.79-56.14h-59.34c-5.97,0-10.52,3.39-11.69,8.62-1.27,5.65,1.38,10.64,7.06,13.2,3.48,1.57,6.97,3.16,10.52,4.56,3.44,1.38,5.16,3.68,4.99,7.47-.14,3.03-.03,6.06-.03,9.15h76.73v-27.61c-3.36,0-6.59,.03-9.81,0-5.02-.06-9.58-1.61-12.73-5.55-2.2-2.74-3.6-6.13-5.69-9.84h0Zm-96.77,183v3.33c.02,5.55,2.17,7.79,7.77,7.79,41.28,.02,82.55,.01,123.83,0,.66,0,1.33-.04,1.99-.13,3.15-.44,5.24-2.39,5.6-5.53,.2-1.75,.04-3.55,.04-5.46H90Zm163-93v46.91c5.3-.28,10.42-.28,15.46-.91,4.55-.56,8.64-.33,11.98,3.22,.06,.06,.32-.06,.56-.11v-52.89c-.72,.43-1.26,.62-1.6,.99-2.26,2.42-5.04,2.94-8.25,2.84-5.95-.19-11.9-.05-18.16-.05h0Zm49,62v-79h-6.32c-4.89,0-5.68,.81-5.68,5.84v55.49c0,4.46-.06,8.92,.03,13.37,.06,2.97,1.24,4.17,4.11,4.28,2.53,.1,5.06,.02,7.85,.02h0ZM222,123.13v9.99c.1,4.38,2.73,7.29,6.66,7.36,3.96,.07,6.87-2.77,6.94-7.09,.1-6.65,.1-13.31,0-19.96-.07-4.3-2.99-7.15-6.95-7.07-3.84,.08-6.54,2.91-6.63,7.08-.07,3.23,0,6.46-.02,9.7h0Zm-9-10.8c-5.51,.35-11.31-1.58-15,4.17-2.2,3.42-1.94,11.43,.44,14.48,3.93,5.03,9.41,3.14,14.56,3.5v-22.14h0Zm11,36.65v22h9v-22h-9Z"/><path class="cls-2" d="M136.23,250h-36.91c-8.86,0-13.12-4.21-13.14-12.98-.02-11.74-.02-23.48,0-35.22,.02-9.15,5.17-13.51,15.02-12.7l68.92,.1c10.61-1.19,16.12,3.21,16.13,12.8,.02,11.74,.02,23.48,0,35.22-.02,8.35-4.44,12.76-12.8,12.78-12.4,.02-24.8,0-37.2,0h0Zm-.05-52.99h-37.39c-3.67,0-4.32,.63-4.32,4.34-.02,11.9-.02,23.79,0,35.69,0,3.51,.67,4.16,4.21,4.16,25.02,0,50.05,0,75.07,0,3.45,0,4.2-.74,4.21-4.19,.02-11.9,.02-23.79,0-35.69,0-3.57-.78-4.31-4.38-4.31h-37.4Z"/><path class="cls-2" d="M150.25,275.6c0,7.13-5.65,12.87-12.77,12.98-7.15,.1-13.06-5.77-13.06-12.99s5.93-13.08,13.08-12.99c7.07,.1,12.75,5.89,12.75,13h0Zm-12.9-4.6c-2.34,0-4.31,1.97-4.35,4.34-.04,2.5,2.02,4.55,4.49,4.46,2.4-.08,4.22-2.01,4.19-4.45-.03-2.39-1.97-4.35-4.32-4.35h0Z"/><path class="cls-2" d="M115.86,275.55c.02,7.16-5.93,13.1-13.06,13.03-7.09-.07-12.79-5.84-12.81-12.94-.01-7.21,5.87-13.12,13.01-13.04,7.04,.07,12.83,5.91,12.86,12.95Zm-8.86-.15c0-1.01-.36-2.01-1.07-2.72-3.22-3.21-7.46-.74-7.62,2.69-.13,2.8,2.22,5.04,5.08,4.55,2.13-.36,3.61-2.34,3.61-4.5v-.02Z"/><path class="cls-2" d="M210.28,279.55c-6.85,0-13.71,.03-20.56-.01-2.56-.02-4.13-1.35-4.37-3.95-.22-2.43,1.44-4.2,4.12-4.53,1.69-.2,3.44,.25,5.1-.66l31.99-.11c1.67,.99,2.95,.62,4.32,.73,2.89,.2,4.74,1.89,4.73,4.31,0,2.46-1.83,4.18-4.76,4.21-6.85,.06-13.71,.02-20.56,.02h0Z"/><path class="cls-2" d="M216.4,200c4.28,0,8.55-.04,12.83,0,3.06,.03,4.78,1.49,4.9,4,.12,2.63-1.65,4.49-4.74,4.52-8.74,.08-17.48,.08-26.22,0-3.03-.03-4.91-1.97-4.78-4.51,.12-2.46,1.9-3.97,4.91-4.01,4.37-.05,8.74,0,13.11,0h0Z"/><path class="cls-2" d="M216.01,230.33c-4.08,0-8.17,.03-12.25,0-3.36-.03-5.31-1.59-5.38-4.2-.07-2.64,1.85-4.32,5.19-4.34,8.45-.04,16.91-.04,25.36,0,3.41,.02,5.23,1.6,5.21,4.29-.03,2.69-1.87,4.21-5.29,4.25-4.27,.05-8.55,0-12.82,0h-.02Z"/><path class="cls-2" d="M168.37,280c-1.14,0-2.29,.08-3.42-.02-2.54-.23-3.94-1.89-3.88-4.5,.05-1.95,1.61-3.57,3.56-3.78,2.61-.28,5.31-.28,7.92,.01,2.41,.27,3.61,2.03,3.41,4.47-.19,2.32-1.58,3.61-3.88,3.79-1.23,.1-2.47,.02-3.7,.02h0Z"/></g></g></g></g></svg>