<?xml version="1.0" encoding="UTF-8"?><svg id="Layer_2" xmlns="http://www.w3.org/2000/svg" viewBox="0 0 129.54 47.07"><defs><style>.cls-1{fill:#c1212d;}.cls-2{fill:#1e1d1d;}</style></defs><g id="_ゴ"><g><g><path class="cls-2" d="M14.36,.34V14.2L5.81,.34H0V24.15H6.01V10.29l8.52,13.86h5.84V.34h-6.01Z"/><path class="cls-2" d="M26.11,.34V24.15h6.02V.34h-6.02Z"/><path class="cls-2" d="M50.79,.34h-12.86V24.15h6.02V15.87h6.84c4.01,0,6.05-2.01,6.05-5.91v-3.71c0-3.91-2.04-5.91-6.05-5.91Zm.04,8.65c0,1.3-.47,1.77-1.84,1.77h-5.04V5.45h5.04c1.37,0,1.84,.43,1.84,1.77v1.77Z"/><path class="cls-2" d="M74.07,.34h-12.86V24.15h6.01V15.87h6.85c4.01,0,6.05-2.01,6.05-5.91v-3.71c0-3.91-2.04-5.91-6.05-5.91Zm.03,8.65c0,1.3-.46,1.77-1.83,1.77h-5.05V5.45h5.05c1.37,0,1.83,.43,1.83,1.77v1.77Z"/><path class="cls-2" d="M97.72,0h-7.52c-4.01,0-6.04,2.01-6.04,5.92v12.65c0,3.91,2.03,5.92,6.04,5.92h7.52c4,0,6.04-2.01,6.04-5.92V5.92c0-3.91-2.04-5.92-6.04-5.92Zm.03,17.61c0,1.3-.47,1.77-1.84,1.77h-3.91c-1.36,0-1.83-.47-1.83-1.77V6.88c0-1.33,.47-1.77,1.83-1.77h3.91c1.37,0,1.84,.44,1.84,1.77v10.73Z"/><path class="cls-2" d="M123.53,.34V14.2L114.98,.34h-5.81V24.15h6.01V10.29l8.52,13.86h5.84V.34h-6.01Z"/></g><path class="cls-1" d="M109.62,37.22c-.13-.38-.31-.71-.54-1-.23-.3-.52-.53-.86-.7-.33-.17-.71-.26-1.13-.26-.45,0-.84,.09-1.18,.27-.34,.18-.62,.42-.85,.72-.23,.3-.4,.63-.52,1s-.18,.74-.18,1.13,.07,.79,.19,1.17,.3,.71,.53,1c.23,.3,.52,.53,.86,.7,.33,.17,.72,.26,1.15,.26s.82-.09,1.17-.27c.34-.18,.62-.42,.85-.72,.23-.31,.4-.64,.52-1.02,.12-.37,.18-.74,.18-1.12,0-.4-.07-.79-.19-1.16Zm0,0c-.13-.38-.31-.71-.54-1-.23-.3-.52-.53-.86-.7-.33-.17-.71-.26-1.13-.26-.45,0-.84,.09-1.18,.27-.34,.18-.62,.42-.85,.72-.23,.3-.4,.63-.52,1s-.18,.74-.18,1.13,.07,.79,.19,1.17,.3,.71,.53,1c.23,.3,.52,.53,.86,.7,.33,.17,.72,.26,1.15,.26s.82-.09,1.17-.27c.34-.18,.62-.42,.85-.72,.23-.31,.4-.64,.52-1.02,.12-.37,.18-.74,.18-1.12,0-.4-.07-.79-.19-1.16Zm0,0c-.13-.38-.31-.71-.54-1-.23-.3-.52-.53-.86-.7-.33-.17-.71-.26-1.13-.26-.45,0-.84,.09-1.18,.27-.34,.18-.62,.42-.85,.72-.23,.3-.4,.63-.52,1s-.18,.74-.18,1.13,.07,.79,.19,1.17,.3,.71,.53,1c.23,.3,.52,.53,.86,.7,.33,.17,.72,.26,1.15,.26s.82-.09,1.17-.27c.34-.18,.62-.42,.85-.72,.23-.31,.4-.64,.52-1.02,.12-.37,.18-.74,.18-1.12,0-.4-.07-.79-.19-1.16Zm0,0c-.13-.38-.31-.71-.54-1-.23-.3-.52-.53-.86-.7-.33-.17-.71-.26-1.13-.26-.45,0-.84,.09-1.18,.27-.34,.18-.62,.42-.85,.72-.23,.3-.4,.63-.52,1s-.18,.74-.18,1.13,.07,.79,.19,1.17,.3,.71,.53,1c.23,.3,.52,.53,.86,.7,.33,.17,.72,.26,1.15,.26s.82-.09,1.17-.27c.34-.18,.62-.42,.85-.72,.23-.31,.4-.64,.52-1.02,.12-.37,.18-.74,.18-1.12,0-.4-.07-.79-.19-1.16Zm-60.6-.45c-.22-.46-.53-.82-.94-1.08-.42-.26-.92-.39-1.5-.39h-1.58v6.16h1.58c.59,0,1.1-.14,1.51-.41,.41-.26,.72-.63,.94-1.1,.21-.47,.32-1,.32-1.58,0-.61-.11-1.14-.33-1.6Zm60.6,.45c-.13-.38-.31-.71-.54-1-.23-.3-.52-.53-.86-.7-.33-.17-.71-.26-1.13-.26-.45,0-.84,.09-1.18,.27-.34,.18-.62,.42-.85,.72-.23,.3-.4,.63-.52,1s-.18,.74-.18,1.13,.07,.79,.19,1.17,.3,.71,.53,1c.23,.3,.52,.53,.86,.7,.33,.17,.72,.26,1.15,.26s.82-.09,1.17-.27c.34-.18,.62-.42,.85-.72,.23-.31,.4-.64,.52-1.02,.12-.37,.18-.74,.18-1.12,0-.4-.07-.79-.19-1.16Zm0,0c-.13-.38-.31-.71-.54-1-.23-.3-.52-.53-.86-.7-.33-.17-.71-.26-1.13-.26-.45,0-.84,.09-1.18,.27-.34,.18-.62,.42-.85,.72-.23,.3-.4,.63-.52,1s-.18,.74-.18,1.13,.07,.79,.19,1.17,.3,.71,.53,1c.23,.3,.52,.53,.86,.7,.33,.17,.72,.26,1.15,.26s.82-.09,1.17-.27c.34-.18,.62-.42,.85-.72,.23-.31,.4-.64,.52-1.02,.12-.37,.18-.74,.18-1.12,0-.4-.07-.79-.19-1.16Zm-60.6-.45c-.22-.46-.53-.82-.94-1.08-.42-.26-.92-.39-1.5-.39h-1.58v6.16h1.58c.59,0,1.1-.14,1.51-.41,.41-.26,.72-.63,.94-1.1,.21-.47,.32-1,.32-1.58,0-.61-.11-1.14-.33-1.6Zm-27.31-.74c-.13-.22-.28-.4-.47-.53s-.39-.2-.61-.2h-2.2v3.03h2.28c.22,0,.43-.07,.6-.21,.18-.13,.32-.31,.42-.54,.11-.23,.16-.48,.16-.77s-.06-.55-.18-.78Zm14.12,1.19c-.13-.38-.31-.71-.54-1-.23-.3-.52-.53-.85-.7-.34-.17-.72-.26-1.14-.26-.45,0-.84,.09-1.18,.27-.33,.18-.62,.42-.84,.72-.23,.3-.4,.63-.52,1s-.18,.74-.18,1.13,.06,.79,.18,1.17c.13,.38,.3,.71,.54,1,.23,.3,.51,.53,.85,.7,.34,.17,.72,.26,1.15,.26s.83-.09,1.17-.27c.34-.18,.63-.42,.85-.72,.23-.31,.41-.64,.52-1.02,.12-.37,.18-.74,.18-1.12,0-.4-.06-.79-.19-1.16Zm13.19-.45c-.22-.46-.53-.82-.94-1.08-.42-.26-.92-.39-1.5-.39h-1.58v6.16h1.58c.59,0,1.1-.14,1.51-.41,.41-.26,.72-.63,.94-1.1,.21-.47,.32-1,.32-1.58,0-.61-.11-1.14-.33-1.6Zm60.6,.45c-.13-.38-.31-.71-.54-1-.23-.3-.52-.53-.86-.7-.33-.17-.71-.26-1.13-.26-.45,0-.84,.09-1.18,.27-.34,.18-.62,.42-.85,.72-.23,.3-.4,.63-.52,1s-.18,.74-.18,1.13,.07,.79,.19,1.17,.3,.71,.53,1c.23,.3,.52,.53,.86,.7,.33,.17,.72,.26,1.15,.26s.82-.09,1.17-.27c.34-.18,.62-.42,.85-.72,.23-.31,.4-.64,.52-1.02,.12-.37,.18-.74,.18-1.12,0-.4-.07-.79-.19-1.16Zm0,0c-.13-.38-.31-.71-.54-1-.23-.3-.52-.53-.86-.7-.33-.17-.71-.26-1.13-.26-.45,0-.84,.09-1.18,.27-.34,.18-.62,.42-.85,.72-.23,.3-.4,.63-.52,1s-.18,.74-.18,1.13,.07,.79,.19,1.17,.3,.71,.53,1c.23,.3,.52,.53,.86,.7,.33,.17,.72,.26,1.15,.26s.82-.09,1.17-.27c.34-.18,.62-.42,.85-.72,.23-.31,.4-.64,.52-1.02,.12-.37,.18-.74,.18-1.12,0-.4-.07-.79-.19-1.16Zm-60.6-.45c-.22-.46-.53-.82-.94-1.08-.42-.26-.92-.39-1.5-.39h-1.58v6.16h1.58c.59,0,1.1-.14,1.51-.41,.41-.26,.72-.63,.94-1.1,.21-.47,.32-1,.32-1.58,0-.61-.11-1.14-.33-1.6Zm-13.19,.45c-.13-.38-.31-.71-.54-1-.23-.3-.52-.53-.85-.7-.34-.17-.72-.26-1.14-.26-.45,0-.84,.09-1.18,.27-.33,.18-.62,.42-.84,.72-.23,.3-.4,.63-.52,1s-.18,.74-.18,1.13,.06,.79,.18,1.17c.13,.38,.3,.71,.54,1,.23,.3,.51,.53,.85,.7,.34,.17,.72,.26,1.15,.26s.83-.09,1.17-.27c.34-.18,.63-.42,.85-.72,.23-.31,.41-.64,.52-1.02,.12-.37,.18-.74,.18-1.12,0-.4-.06-.79-.19-1.16Zm-14.12-1.19c-.13-.22-.28-.4-.47-.53s-.39-.2-.61-.2h-2.2v3.03h2.28c.22,0,.43-.07,.6-.21,.18-.13,.32-.31,.42-.54,.11-.23,.16-.48,.16-.77s-.06-.55-.18-.78ZM0,29.69v17.38H129.54V29.69H0Zm11.05,8.62c-.25,.48-.59,.86-1.02,1.16-.43,.3-.94,.45-1.52,.45h-2.21v3.13h-1.81v-9.34h3.95c.43,0,.83,.09,1.19,.27,.36,.17,.67,.41,.94,.71,.26,.29,.47,.63,.62,.99,.15,.37,.22,.75,.22,1.13,0,.53-.12,1.03-.36,1.5Zm11.12,4.74l-1.92-3.13h-1.82v3.13h-1.81v-9.34h4.13c.43,0,.82,.09,1.19,.27,.36,.17,.68,.41,.94,.71,.27,.29,.48,.63,.62,.99,.14,.37,.22,.75,.22,1.13,0,.4-.07,.78-.21,1.14-.13,.37-.33,.68-.58,.96-.26,.27-.55,.48-.9,.63l2.13,3.51h-1.99Zm15.34-2.88c-.23,.57-.55,1.07-.96,1.52-.4,.44-.89,.79-1.44,1.04-.56,.25-1.17,.38-1.82,.38-.69,0-1.31-.13-1.86-.39-.56-.27-1.04-.62-1.44-1.07-.39-.46-.7-.96-.92-1.53-.22-.56-.33-1.14-.33-1.74s.11-1.22,.35-1.78c.23-.57,.55-1.07,.96-1.51,.4-.45,.89-.8,1.44-1.06,.56-.25,1.17-.38,1.84-.38s1.29,.13,1.84,.4c.56,.28,1.04,.64,1.43,1.1,.39,.45,.7,.96,.92,1.52,.22,.56,.33,1.14,.33,1.74s-.12,1.2-.34,1.76Zm13.1,.67c-.37,.7-.91,1.24-1.59,1.63-.69,.38-1.5,.58-2.44,.58h-3.39v-9.34h3.39c1.01,0,1.86,.21,2.55,.63,.68,.41,1.19,.97,1.54,1.68,.34,.7,.51,1.49,.51,2.35,0,.94-.19,1.77-.57,2.47Zm13.96-2.37c0,.64-.07,1.24-.23,1.8-.15,.56-.39,1.06-.72,1.48-.33,.43-.75,.76-1.27,1-.51,.24-1.13,.36-1.85,.36s-1.38-.12-1.9-.37-.94-.6-1.26-1.04c-.32-.43-.56-.93-.71-1.49-.14-.55-.22-1.13-.22-1.74v-4.76h1.81v4.76c0,.39,.04,.76,.12,1.13,.07,.36,.2,.69,.37,.97,.18,.29,.41,.52,.7,.69,.29,.16,.65,.25,1.08,.25s.8-.09,1.09-.26c.3-.17,.53-.4,.7-.69,.17-.29,.3-.61,.38-.98,.07-.36,.11-.73,.11-1.11v-4.76h1.8v4.76Zm12.67,3.66c-.42,.32-.88,.57-1.4,.73-.52,.17-1.03,.25-1.54,.25-.66,0-1.27-.14-1.83-.41-.55-.28-1.02-.65-1.42-1.11-.4-.46-.71-.97-.94-1.55-.22-.57-.33-1.15-.33-1.74s.1-1.13,.31-1.68c.2-.54,.51-1.04,.9-1.49,.39-.46,.87-.81,1.45-1.08,.57-.27,1.21-.4,1.94-.4,.86,0,1.6,.19,2.23,.56,.63,.38,1.09,.87,1.4,1.47l-1.39,.96c-.16-.35-.37-.62-.62-.83-.26-.21-.53-.35-.82-.43-.29-.09-.57-.13-.85-.13-.46,0-.85,.09-1.19,.28-.34,.18-.62,.42-.85,.72s-.4,.63-.51,1c-.11,.37-.16,.73-.16,1.1,0,.41,.07,.81,.2,1.19s.31,.72,.56,1.01c.24,.3,.53,.53,.86,.7,.34,.17,.71,.26,1.11,.26,.29,0,.59-.05,.88-.15,.3-.09,.58-.25,.83-.46,.26-.21,.45-.48,.6-.81l1.48,.85c-.18,.47-.48,.86-.9,1.19Zm13.05-6.83h-2.99v7.75h-1.8v-7.75h-2.98v-1.59h7.77v1.59Zm6.91,7.75h-1.81v-9.34h1.81v9.34Zm14.09-2.88c-.23,.57-.54,1.07-.95,1.52-.41,.44-.89,.79-1.45,1.04-.55,.25-1.16,.38-1.82,.38s-1.3-.13-1.86-.39c-.55-.27-1.03-.62-1.43-1.07-.4-.46-.71-.96-.93-1.53-.22-.56-.33-1.14-.33-1.74s.12-1.22,.35-1.78c.24-.57,.56-1.07,.96-1.51,.41-.45,.89-.8,1.45-1.06,.55-.25,1.17-.38,1.83-.38s1.29,.13,1.85,.4c.56,.28,1.03,.64,1.43,1.1,.39,.45,.7,.96,.92,1.52,.22,.56,.33,1.14,.33,1.74s-.12,1.2-.35,1.76Zm13.77,2.88h-1.51l-4.76-6v6h-1.82v-9.34h1.45l4.82,6.15v-6.13h1.82v9.32Zm-15.98-6.83c-.23-.3-.52-.53-.86-.7-.33-.17-.71-.26-1.13-.26-.45,0-.84,.09-1.18,.27-.34,.18-.62,.42-.85,.72-.23,.3-.4,.63-.52,1s-.18,.74-.18,1.13,.07,.79,.19,1.17,.3,.71,.53,1c.23,.3,.52,.53,.86,.7,.33,.17,.72,.26,1.15,.26s.82-.09,1.17-.27c.34-.18,.62-.42,.85-.72,.23-.31,.4-.64,.52-1.02,.12-.37,.18-.74,.18-1.12,0-.4-.07-.79-.19-1.16-.13-.38-.31-.71-.54-1Zm-61-.53c-.42-.26-.92-.39-1.5-.39h-1.58v6.16h1.58c.59,0,1.1-.14,1.51-.41,.41-.26,.72-.63,.94-1.1,.21-.47,.32-1,.32-1.58,0-.61-.11-1.14-.33-1.6-.22-.46-.53-.82-.94-1.08Zm-12.79,.53c-.23-.3-.52-.53-.85-.7-.34-.17-.72-.26-1.14-.26-.45,0-.84,.09-1.18,.27-.33,.18-.62,.42-.84,.72-.23,.3-.4,.63-.52,1s-.18,.74-.18,1.13,.06,.79,.18,1.17c.13,.38,.3,.71,.54,1,.23,.3,.51,.53,.85,.7,.34,.17,.72,.26,1.15,.26s.83-.09,1.17-.27c.34-.18,.63-.42,.85-.72,.23-.31,.41-.64,.52-1.02,.12-.37,.18-.74,.18-1.12,0-.4-.06-.79-.19-1.16-.13-.38-.31-.71-.54-1Zm-14.05-.72c-.19-.13-.39-.2-.61-.2h-2.2v3.03h2.28c.22,0,.43-.07,.6-.21,.18-.13,.32-.31,.42-.54,.11-.23,.16-.48,.16-.77s-.06-.55-.18-.78c-.13-.22-.28-.4-.47-.53Zm-12.3-.03c-.19-.11-.4-.17-.62-.17h-2.02v3.03h2.1c.22,0,.42-.06,.59-.19,.18-.12,.32-.3,.42-.53,.11-.23,.16-.5,.16-.8,0-.32-.06-.6-.17-.82-.12-.23-.28-.4-.46-.52Zm26.89,1.75c-.13-.38-.31-.71-.54-1-.23-.3-.52-.53-.85-.7-.34-.17-.72-.26-1.14-.26-.45,0-.84,.09-1.18,.27-.33,.18-.62,.42-.84,.72-.23,.3-.4,.63-.52,1s-.18,.74-.18,1.13,.06,.79,.18,1.17c.13,.38,.3,.71,.54,1,.23,.3,.51,.53,.85,.7,.34,.17,.72,.26,1.15,.26s.83-.09,1.17-.27c.34-.18,.63-.42,.85-.72,.23-.31,.41-.64,.52-1.02,.12-.37,.18-.74,.18-1.12,0-.4-.06-.79-.19-1.16Zm13.19-.45c-.22-.46-.53-.82-.94-1.08-.42-.26-.92-.39-1.5-.39h-1.58v6.16h1.58c.59,0,1.1-.14,1.51-.41,.41-.26,.72-.63,.94-1.1,.21-.47,.32-1,.32-1.58,0-.61-.11-1.14-.33-1.6Zm60.6,.45c-.13-.38-.31-.71-.54-1-.23-.3-.52-.53-.86-.7-.33-.17-.71-.26-1.13-.26-.45,0-.84,.09-1.18,.27-.34,.18-.62,.42-.85,.72-.23,.3-.4,.63-.52,1s-.18,.74-.18,1.13,.07,.79,.19,1.17,.3,.71,.53,1c.23,.3,.52,.53,.86,.7,.33,.17,.72,.26,1.15,.26s.82-.09,1.17-.27c.34-.18,.62-.42,.85-.72,.23-.31,.4-.64,.52-1.02,.12-.37,.18-.74,.18-1.12,0-.4-.07-.79-.19-1.16Zm0,0c-.13-.38-.31-.71-.54-1-.23-.3-.52-.53-.86-.7-.33-.17-.71-.26-1.13-.26-.45,0-.84,.09-1.18,.27-.34,.18-.62,.42-.85,.72-.23,.3-.4,.63-.52,1s-.18,.74-.18,1.13,.07,.79,.19,1.17,.3,.71,.53,1c.23,.3,.52,.53,.86,.7,.33,.17,.72,.26,1.15,.26s.82-.09,1.17-.27c.34-.18,.62-.42,.85-.72,.23-.31,.4-.64,.52-1.02,.12-.37,.18-.74,.18-1.12,0-.4-.07-.79-.19-1.16Zm-60.6-.45c-.22-.46-.53-.82-.94-1.08-.42-.26-.92-.39-1.5-.39h-1.58v6.16h1.58c.59,0,1.1-.14,1.51-.41,.41-.26,.72-.63,.94-1.1,.21-.47,.32-1,.32-1.58,0-.61-.11-1.14-.33-1.6Zm-13.19,.45c-.13-.38-.31-.71-.54-1-.23-.3-.52-.53-.85-.7-.34-.17-.72-.26-1.14-.26-.45,0-.84,.09-1.18,.27-.33,.18-.62,.42-.84,.72-.23,.3-.4,.63-.52,1s-.18,.74-.18,1.13,.06,.79,.18,1.17c.13,.38,.3,.71,.54,1,.23,.3,.51,.53,.85,.7,.34,.17,.72,.26,1.15,.26s.83-.09,1.17-.27c.34-.18,.63-.42,.85-.72,.23-.31,.41-.64,.52-1.02,.12-.37,.18-.74,.18-1.12,0-.4-.06-.79-.19-1.16Zm73.79,0c-.13-.38-.31-.71-.54-1-.23-.3-.52-.53-.86-.7-.33-.17-.71-.26-1.13-.26-.45,0-.84,.09-1.18,.27-.34,.18-.62,.42-.85,.72-.23,.3-.4,.63-.52,1s-.18,.74-.18,1.13,.07,.79,.19,1.17,.3,.71,.53,1c.23,.3,.52,.53,.86,.7,.33,.17,.72,.26,1.15,.26s.82-.09,1.17-.27c.34-.18,.62-.42,.85-.72,.23-.31,.4-.64,.52-1.02,.12-.37,.18-.74,.18-1.12,0-.4-.07-.79-.19-1.16Zm0,0c-.13-.38-.31-.71-.54-1-.23-.3-.52-.53-.86-.7-.33-.17-.71-.26-1.13-.26-.45,0-.84,.09-1.18,.27-.34,.18-.62,.42-.85,.72-.23,.3-.4,.63-.52,1s-.18,.74-.18,1.13,.07,.79,.19,1.17,.3,.71,.53,1c.23,.3,.52,.53,.86,.7,.33,.17,.72,.26,1.15,.26s.82-.09,1.17-.27c.34-.18,.62-.42,.85-.72,.23-.31,.4-.64,.52-1.02,.12-.37,.18-.74,.18-1.12,0-.4-.07-.79-.19-1.16Zm0,0c-.13-.38-.31-.71-.54-1-.23-.3-.52-.53-.86-.7-.33-.17-.71-.26-1.13-.26-.45,0-.84,.09-1.18,.27-.34,.18-.62,.42-.85,.72-.23,.3-.4,.63-.52,1s-.18,.74-.18,1.13,.07,.79,.19,1.17,.3,.71,.53,1c.23,.3,.52,.53,.86,.7,.33,.17,.72,.26,1.15,.26s.82-.09,1.17-.27c.34-.18,.62-.42,.85-.72,.23-.31,.4-.64,.52-1.02,.12-.37,.18-.74,.18-1.12,0-.4-.07-.79-.19-1.16Zm0,0c-.13-.38-.31-.71-.54-1-.23-.3-.52-.53-.86-.7-.33-.17-.71-.26-1.13-.26-.45,0-.84,.09-1.18,.27-.34,.18-.62,.42-.85,.72-.23,.3-.4,.63-.52,1s-.18,.74-.18,1.13,.07,.79,.19,1.17,.3,.71,.53,1c.23,.3,.52,.53,.86,.7,.33,.17,.72,.26,1.15,.26s.82-.09,1.17-.27c.34-.18,.62-.42,.85-.72,.23-.31,.4-.64,.52-1.02,.12-.37,.18-.74,.18-1.12,0-.4-.07-.79-.19-1.16Zm0,0c-.13-.38-.31-.71-.54-1-.23-.3-.52-.53-.86-.7-.33-.17-.71-.26-1.13-.26-.45,0-.84,.09-1.18,.27-.34,.18-.62,.42-.85,.72-.23,.3-.4,.63-.52,1s-.18,.74-.18,1.13,.07,.79,.19,1.17,.3,.71,.53,1c.23,.3,.52,.53,.86,.7,.33,.17,.72,.26,1.15,.26s.82-.09,1.17-.27c.34-.18,.62-.42,.85-.72,.23-.31,.4-.64,.52-1.02,.12-.37,.18-.74,.18-1.12,0-.4-.07-.79-.19-1.16Zm0,0c-.13-.38-.31-.71-.54-1-.23-.3-.52-.53-.86-.7-.33-.17-.71-.26-1.13-.26-.45,0-.84,.09-1.18,.27-.34,.18-.62,.42-.85,.72-.23,.3-.4,.63-.52,1s-.18,.74-.18,1.13,.07,.79,.19,1.17,.3,.71,.53,1c.23,.3,.52,.53,.86,.7,.33,.17,.72,.26,1.15,.26s.82-.09,1.17-.27c.34-.18,.62-.42,.85-.72,.23-.31,.4-.64,.52-1.02,.12-.37,.18-.74,.18-1.12,0-.4-.07-.79-.19-1.16Z"/></g></g></svg>