<?xml version="1.0" encoding="UTF-8"?><svg id="Layer_2" xmlns="http://www.w3.org/2000/svg" viewBox="0 0 30.51 24.39"><defs><style>.cls-1{fill:#a91b26;}</style></defs><g id="Layer_1-2"><g><path class="cls-1" d="M30.51,0V8.19c0,3.06-.54,5.88-1.62,8.46-1.02,2.52-2.85,5.1-5.49,7.74l-4.59-3.6c1.92-1.98,3.24-3.81,3.96-5.49,.42-.94,.73-1.9,.92-2.88h-5.78V0h12.6Z"/><path class="cls-1" d="M12.6,0V8.19c0,3.06-.54,5.88-1.62,8.46-1.02,2.52-2.85,5.1-5.49,7.74L.9,20.79c1.92-1.98,3.24-3.81,3.96-5.49,.42-.94,.73-1.9,.92-2.88H0V0H12.6Z"/></g></g></svg>