<?xml version="1.0" encoding="UTF-8"?><svg id="Layer_2" xmlns="http://www.w3.org/2000/svg" viewBox="0 0 39.25 39.25"><defs><style>.cls-1{fill:none;}.cls-2{fill:#1e1d1d;}</style></defs><g id="Layer_1-2"><g><path class="cls-2" d="M29.62,13.52c-.74,.32-1.53,.54-2.36,.64,.86-.5,1.5-1.3,1.8-2.23-.81,.47-1.69,.8-2.61,.98-.62-.65-1.44-1.08-2.33-1.22-.89-.14-1.81,0-2.6,.42-.8,.42-1.43,1.09-1.8,1.9-.37,.81-.46,1.72-.26,2.59-1.63-.08-3.23-.5-4.68-1.22-1.46-.73-2.74-1.75-3.77-2.99-.35,.6-.55,1.29-.55,2.03,0,.66,.17,1.32,.48,1.91,.32,.59,.78,1.09,1.34,1.46-.65-.02-1.29-.19-1.86-.51v.05c0,.93,.33,1.84,.93,2.56,.6,.72,1.44,1.22,2.36,1.4-.6,.16-1.24,.18-1.85,.07,.26,.8,.77,1.5,1.46,2.01,.69,.5,1.52,.78,2.37,.8-1.45,1.12-3.25,1.73-5.1,1.73-.33,0-.65-.02-.98-.06,1.88,1.19,4.06,1.82,6.29,1.81,7.55,0,11.68-6.15,11.68-11.49,0-.17,0-.35-.01-.52,.8-.57,1.5-1.28,2.05-2.09h0Z"/><rect class="cls-1" width="39.25" height="39.25"/></g></g></svg>